<svg width="269" height="265" viewBox="0 0 269 265" fill="none" xmlns="http://www.w3.org/2000/svg">
<rect x="19.827" y="15" width="249" height="250" rx="10" fill="#323232"/>
<path d="M38.1046 50V32.288H44.8726C46.5366 32.288 47.7686 32.68 48.5686 33.464C49.3686 34.248 49.7686 35.392 49.7686 36.896C49.7686 37.6 49.6566 38.224 49.4326 38.768C49.2246 39.296 48.9366 39.736 48.5686 40.088C48.2006 40.424 47.7686 40.656 47.2726 40.784C47.6406 40.88 48.0006 41.032 48.3526 41.24C48.7206 41.432 49.0566 41.704 49.3606 42.056C49.6646 42.408 49.9046 42.84 50.0806 43.352C50.2566 43.848 50.3446 44.432 50.3446 45.104C50.3446 46.32 50.1366 47.288 49.7206 48.008C49.3206 48.712 48.7286 49.224 47.9446 49.544C47.1766 49.848 46.2486 50 45.1606 50H38.1046ZM41.0566 47.336H45.0646C45.5606 47.336 45.9926 47.248 46.3606 47.072C46.7286 46.896 47.0086 46.616 47.2006 46.232C47.4086 45.832 47.5126 45.288 47.5126 44.6C47.5126 44.056 47.4086 43.6 47.2006 43.232C46.9926 42.864 46.7046 42.584 46.3366 42.392C45.9686 42.184 45.5446 42.08 45.0646 42.08H41.0566V47.336ZM41.0566 39.776H44.9206C45.5126 39.776 45.9926 39.56 46.3606 39.128C46.7286 38.68 46.9206 38.096 46.9366 37.376C46.9526 36.464 46.7526 35.832 46.3366 35.48C45.9366 35.128 45.4406 34.952 44.8486 34.952H41.0566V39.776ZM51.86 50L57.62 32.288H61.364L67.124 50H64.028L62.66 45.8H56.252L54.908 50H51.86ZM56.948 43.136H61.94L59.444 34.832L56.948 43.136ZM74.9696 50.144C73.9296 50.144 73.0096 50.024 72.2096 49.784C71.4256 49.544 70.7616 49.104 70.2176 48.464C69.6896 47.824 69.2896 46.912 69.0176 45.728C68.7456 44.544 68.6096 42.992 68.6096 41.072C68.6096 39.264 68.7456 37.776 69.0176 36.608C69.3056 35.44 69.7216 34.528 70.2656 33.872C70.8256 33.216 71.5056 32.76 72.3056 32.504C73.1056 32.248 74.0176 32.12 75.0416 32.12C75.7456 32.12 76.4256 32.16 77.0816 32.24C77.7536 32.32 78.3696 32.416 78.9296 32.528C79.5056 32.64 80.0016 32.76 80.4176 32.888V35.168C80.1456 35.104 79.7616 35.048 79.2656 35C78.7696 34.936 78.2096 34.888 77.5856 34.856C76.9616 34.808 76.3136 34.784 75.6416 34.784C74.9056 34.784 74.2736 34.872 73.7456 35.048C73.2336 35.208 72.8176 35.512 72.4976 35.96C72.1776 36.408 71.9456 37.048 71.8016 37.88C71.6576 38.712 71.5856 39.792 71.5856 41.12C71.5856 42.432 71.6496 43.504 71.7776 44.336C71.9216 45.168 72.1376 45.816 72.4256 46.28C72.7296 46.728 73.1376 47.04 73.6496 47.216C74.1776 47.392 74.8336 47.48 75.6176 47.48C76.8176 47.48 77.8016 47.456 78.5696 47.408C79.3376 47.344 79.9536 47.28 80.4176 47.216V49.496C79.9696 49.624 79.4576 49.736 78.8816 49.832C78.3216 49.928 77.7136 50 77.0576 50.048C76.4176 50.112 75.7216 50.144 74.9696 50.144ZM83.0812 50V32.288H86.0332V39.944H93.4972V32.288H96.4732V50H93.4972V42.608H86.0332V50H83.0812ZM98.6881 50L104.448 32.288H108.192L113.952 50H110.856L109.488 45.8H103.08L101.736 50H98.6881ZM103.776 43.136H108.768L106.272 34.832L103.776 43.136ZM116.128 50V32.288H123.328C123.984 32.288 124.6 32.368 125.176 32.528C125.768 32.672 126.288 32.944 126.736 33.344C127.2 33.744 127.56 34.304 127.816 35.024C128.088 35.728 128.224 36.648 128.224 37.784C128.224 38.664 128.136 39.4 127.96 39.992C127.784 40.568 127.552 41.04 127.264 41.408C126.976 41.776 126.648 42.064 126.28 42.272C125.928 42.464 125.576 42.624 125.224 42.752L128.632 50H125.632L122.56 43.184C122.336 43.184 122.072 43.184 121.768 43.184C121.48 43.184 121.176 43.184 120.856 43.184C120.536 43.168 120.224 43.16 119.92 43.16C119.616 43.144 119.336 43.136 119.08 43.136V50H116.128ZM119.08 40.808H122.824C123.176 40.808 123.496 40.768 123.784 40.688C124.072 40.592 124.328 40.432 124.552 40.208C124.776 39.984 124.944 39.68 125.056 39.296C125.184 38.912 125.248 38.416 125.248 37.808C125.248 37.216 125.184 36.736 125.056 36.368C124.944 35.984 124.776 35.696 124.552 35.504C124.328 35.296 124.064 35.152 123.76 35.072C123.472 34.992 123.16 34.952 122.824 34.952H119.08V40.808ZM135.115 50.12C134.731 50.12 134.299 50.08 133.819 50C133.355 49.936 132.907 49.784 132.475 49.544C132.043 49.288 131.691 48.912 131.419 48.416C131.147 47.92 131.011 47.24 131.011 46.376V36.152C131.011 35.4 131.123 34.776 131.347 34.28C131.571 33.768 131.867 33.368 132.235 33.08C132.619 32.792 133.035 32.592 133.483 32.48C133.947 32.352 134.403 32.288 134.851 32.288C135.971 32.288 136.979 32.304 137.875 32.336C138.771 32.368 139.587 32.4 140.323 32.432C141.075 32.464 141.771 32.504 142.411 32.552V35.024H135.715C135.171 35.024 134.739 35.16 134.419 35.432C134.115 35.704 133.963 36.128 133.963 36.704V39.848L141.331 40.016V42.344L133.963 42.512V45.56C133.963 46.04 134.043 46.408 134.203 46.664C134.379 46.92 134.595 47.096 134.851 47.192C135.123 47.288 135.403 47.336 135.691 47.336H142.411V49.808C141.707 49.872 140.939 49.928 140.107 49.976C139.275 50.008 138.427 50.032 137.563 50.048C136.715 50.08 135.899 50.104 135.115 50.12ZM149.221 50C148.389 50 147.669 49.872 147.061 49.616C146.469 49.36 146.021 48.944 145.717 48.368C145.413 47.776 145.261 47 145.261 46.04V32.288H148.213V45.56C148.213 46.008 148.293 46.368 148.453 46.64C148.613 46.896 148.821 47.072 149.077 47.168C149.349 47.264 149.645 47.312 149.965 47.312H155.845V50H149.221Z" fill="#A0A0A0"/>
<path d="M38.5582 246.12C37.5822 246.12 36.6782 246.04 35.8462 245.88C35.0142 245.704 34.2942 245.408 33.6862 244.992C33.0782 244.56 32.6062 243.976 32.2702 243.24C31.9502 242.488 31.7902 241.528 31.7902 240.36V228.288H34.7422V240.36C34.7422 241.128 34.8942 241.744 35.1982 242.208C35.5022 242.656 35.9342 242.976 36.4942 243.168C37.0702 243.36 37.7582 243.456 38.5582 243.456C39.3582 243.456 40.0382 243.36 40.5982 243.168C41.1742 242.976 41.6142 242.656 41.9182 242.208C42.2222 241.744 42.3742 241.128 42.3742 240.36V228.288H45.3262V240.36C45.3262 241.528 45.1582 242.488 44.8222 243.24C44.5022 243.976 44.0382 244.56 43.4302 244.992C42.8222 245.408 42.1022 245.704 41.2702 245.88C40.4542 246.04 39.5502 246.12 38.5582 246.12ZM48.5816 246V228.288H50.9576L59.0216 240.936V228.288H61.9976V246H59.6216L51.5576 233.352V246H48.5816ZM65.1239 246V228.288H68.0759V246H65.1239ZM75.1977 246V230.952H70.1097V228.288H83.2377V230.952H78.1737V246H75.1977ZM82.9809 246L88.7409 228.288H92.4849L98.2449 246H95.1489L93.7809 241.8H87.3729L86.0289 246H82.9809ZM88.0689 239.136H93.0609L90.5649 230.832L88.0689 239.136ZM106.222 246.12C105.246 246.12 104.342 246.04 103.51 245.88C102.678 245.704 101.958 245.408 101.35 244.992C100.742 244.56 100.27 243.976 99.9342 243.24C99.6142 242.488 99.4542 241.528 99.4542 240.36V228.288H102.406V240.36C102.406 241.128 102.558 241.744 102.862 242.208C103.166 242.656 103.598 242.976 104.158 243.168C104.734 243.36 105.422 243.456 106.222 243.456C107.022 243.456 107.702 243.36 108.262 243.168C108.838 242.976 109.278 242.656 109.582 242.208C109.886 241.744 110.038 241.128 110.038 240.36V228.288H112.99V240.36C112.99 241.528 112.822 242.488 112.486 243.24C112.166 243.976 111.702 244.56 111.094 244.992C110.486 245.408 109.766 245.704 108.934 245.88C108.118 246.04 107.214 246.12 106.222 246.12Z" fill="#A0A0A0"/>
<path d="M38.1554 134V116.288H45.4754C46.0354 116.288 46.6034 116.36 47.1794 116.504C47.7554 116.632 48.2834 116.896 48.7634 117.296C49.2594 117.696 49.6514 118.288 49.9394 119.072C50.2434 119.856 50.3954 120.904 50.3954 122.216C50.3954 123.528 50.2434 124.584 49.9394 125.384C49.6354 126.184 49.2354 126.8 48.7394 127.232C48.2594 127.648 47.7314 127.936 47.1554 128.096C46.5954 128.24 46.0514 128.312 45.5234 128.312C45.2514 128.312 44.9074 128.304 44.4914 128.288C44.0914 128.256 43.6674 128.224 43.2194 128.192C42.7874 128.144 42.3794 128.104 41.9954 128.072C41.6274 128.024 41.3314 127.984 41.1074 127.952V134H38.1554ZM41.1074 125.624H45.0914C45.5554 125.624 45.9634 125.52 46.3154 125.312C46.6674 125.088 46.9394 124.736 47.1314 124.256C47.3234 123.76 47.4194 123.088 47.4194 122.24C47.4194 121.408 47.3154 120.752 47.1074 120.272C46.9154 119.792 46.6514 119.456 46.3154 119.264C45.9954 119.056 45.6194 118.952 45.1874 118.952H41.1074V125.624ZM57.385 134.144C57.017 134.144 56.593 134.128 56.113 134.096C55.649 134.08 55.177 134.048 54.697 134C54.233 133.968 53.801 133.92 53.401 133.856C53.001 133.792 52.673 133.72 52.417 133.64V131.888H57.961C58.361 131.888 58.697 131.856 58.969 131.792C59.257 131.728 59.473 131.6 59.617 131.408C59.761 131.216 59.833 130.928 59.833 130.544V130.088C59.833 129.688 59.697 129.376 59.425 129.152C59.169 128.912 58.713 128.792 58.057 128.792H56.113C55.361 128.792 54.689 128.688 54.097 128.48C53.521 128.272 53.065 127.92 52.729 127.424C52.393 126.928 52.225 126.256 52.225 125.408V124.688C52.225 123.872 52.377 123.2 52.681 122.672C53.001 122.128 53.521 121.72 54.241 121.448C54.977 121.16 55.953 121.016 57.169 121.016C57.681 121.016 58.233 121.04 58.825 121.088C59.417 121.136 59.985 121.2 60.529 121.28C61.073 121.344 61.505 121.424 61.825 121.52V123.272H56.593C56.001 123.272 55.545 123.376 55.225 123.584C54.921 123.776 54.769 124.144 54.769 124.688V125.144C54.769 125.496 54.841 125.76 54.985 125.936C55.129 126.112 55.345 126.232 55.633 126.296C55.921 126.36 56.265 126.392 56.665 126.392H58.657C59.921 126.392 60.857 126.68 61.465 127.256C62.073 127.832 62.377 128.648 62.377 129.704V130.76C62.377 131.624 62.177 132.304 61.777 132.8C61.377 133.296 60.801 133.648 60.049 133.856C59.313 134.048 58.425 134.144 57.385 134.144ZM65.2313 119.096C64.9273 119.096 64.7753 118.952 64.7753 118.664V116.48C64.7753 116.16 64.9273 116 65.2313 116H67.4873C67.6313 116 67.7353 116.048 67.7993 116.144C67.8793 116.24 67.9193 116.352 67.9193 116.48V118.664C67.9193 118.952 67.7753 119.096 67.4873 119.096H65.2313ZM64.8473 134V121.136H67.8233V134H64.8473ZM75.7908 134.144C75.0228 134.144 74.3108 134.048 73.6548 133.856C73.0148 133.648 72.4548 133.304 71.9748 132.824C71.4948 132.328 71.1188 131.656 70.8468 130.808C70.5908 129.96 70.4628 128.896 70.4628 127.616C70.4628 126.304 70.5828 125.216 70.8228 124.352C71.0788 123.488 71.4388 122.808 71.9028 122.312C72.3668 121.816 72.9268 121.472 73.5828 121.28C74.2548 121.072 75.0148 120.968 75.8628 120.968C76.5828 120.968 77.3108 121.008 78.0468 121.088C78.7828 121.152 79.5188 121.28 80.2548 121.472V123.176H76.7508C75.9828 123.176 75.3588 123.296 74.8788 123.536C74.3988 123.776 74.0388 124.216 73.7988 124.856C73.5588 125.496 73.4388 126.416 73.4388 127.616C73.4388 128.8 73.5588 129.704 73.7988 130.328C74.0388 130.936 74.3988 131.352 74.8788 131.576C75.3748 131.784 76.0068 131.888 76.7748 131.888H80.4468V133.568C80.0628 133.68 79.6148 133.784 79.1028 133.88C78.5908 133.96 78.0468 134.024 77.4708 134.072C76.9108 134.12 76.3508 134.144 75.7908 134.144ZM88.0124 134.12C87.0044 134.12 86.1324 134.016 85.3964 133.808C84.6604 133.6 84.0604 133.248 83.5964 132.752C83.1324 132.256 82.7884 131.584 82.5644 130.736C82.3404 129.888 82.2284 128.824 82.2284 127.544C82.2284 126.216 82.3404 125.128 82.5644 124.28C82.7884 123.416 83.1324 122.744 83.5964 122.264C84.0764 121.768 84.6844 121.432 85.4204 121.256C86.1564 121.064 87.0204 120.968 88.0124 120.968C89.0364 120.968 89.9164 121.072 90.6524 121.28C91.3884 121.472 91.9884 121.808 92.4524 122.288C92.9164 122.768 93.2604 123.44 93.4844 124.304C93.7084 125.152 93.8204 126.232 93.8204 127.544C93.8204 128.84 93.7084 129.92 93.4844 130.784C93.2764 131.632 92.9404 132.304 92.4764 132.8C92.0124 133.28 91.4124 133.624 90.6764 133.832C89.9404 134.024 89.0524 134.12 88.0124 134.12ZM88.0124 131.744C88.5084 131.744 88.9324 131.704 89.2844 131.624C89.6364 131.528 89.9244 131.344 90.1484 131.072C90.3884 130.784 90.5644 130.36 90.6764 129.8C90.7884 129.224 90.8444 128.464 90.8444 127.52C90.8444 126.592 90.7884 125.848 90.6764 125.288C90.5644 124.728 90.3884 124.312 90.1484 124.04C89.9244 123.752 89.6364 123.568 89.2844 123.488C88.9324 123.392 88.5084 123.344 88.0124 123.344C87.5324 123.344 87.1164 123.392 86.7644 123.488C86.4124 123.568 86.1244 123.752 85.9004 124.04C85.6764 124.312 85.5004 124.728 85.3724 125.288C85.2604 125.848 85.2044 126.592 85.2044 127.52C85.2044 128.464 85.2604 129.224 85.3724 129.8C85.5004 130.36 85.6764 130.784 85.9004 131.072C86.1244 131.344 86.4124 131.528 86.7644 131.624C87.1164 131.704 87.5324 131.744 88.0124 131.744ZM100.281 134.048C99.4325 134.048 98.7205 133.904 98.1445 133.616C97.5845 133.328 97.1605 132.88 96.8725 132.272C96.6005 131.664 96.4645 130.856 96.4645 129.848V115.688H99.4405V129.44C99.4405 130.016 99.4965 130.464 99.6085 130.784C99.7365 131.104 99.9125 131.336 100.137 131.48C100.361 131.608 100.633 131.696 100.953 131.744L102.033 131.888V134.048H100.281ZM109.176 134.12C108.168 134.12 107.296 134.016 106.56 133.808C105.824 133.6 105.224 133.248 104.76 132.752C104.296 132.256 103.952 131.584 103.728 130.736C103.504 129.888 103.392 128.824 103.392 127.544C103.392 126.216 103.504 125.128 103.728 124.28C103.952 123.416 104.296 122.744 104.76 122.264C105.24 121.768 105.848 121.432 106.584 121.256C107.32 121.064 108.184 120.968 109.176 120.968C110.2 120.968 111.08 121.072 111.816 121.28C112.552 121.472 113.152 121.808 113.616 122.288C114.08 122.768 114.424 123.44 114.648 124.304C114.872 125.152 114.984 126.232 114.984 127.544C114.984 128.84 114.872 129.92 114.648 130.784C114.44 131.632 114.104 132.304 113.64 132.8C113.176 133.28 112.576 133.624 111.84 133.832C111.104 134.024 110.216 134.12 109.176 134.12ZM109.176 131.744C109.672 131.744 110.096 131.704 110.448 131.624C110.8 131.528 111.088 131.344 111.312 131.072C111.552 130.784 111.728 130.36 111.84 129.8C111.952 129.224 112.008 128.464 112.008 127.52C112.008 126.592 111.952 125.848 111.84 125.288C111.728 124.728 111.552 124.312 111.312 124.04C111.088 123.752 110.8 123.568 110.448 123.488C110.096 123.392 109.672 123.344 109.176 123.344C108.696 123.344 108.28 123.392 107.928 123.488C107.576 123.568 107.288 123.752 107.064 124.04C106.84 124.312 106.664 124.728 106.536 125.288C106.424 125.848 106.368 126.592 106.368 127.52C106.368 128.464 106.424 129.224 106.536 129.8C106.664 130.36 106.84 130.784 107.064 131.072C107.288 131.344 107.576 131.528 107.928 131.624C108.28 131.704 108.696 131.744 109.176 131.744ZM120.917 139.928C120.101 139.928 119.373 139.808 118.733 139.568C118.093 139.344 117.589 138.992 117.221 138.512C116.869 138.048 116.693 137.48 116.693 136.808V136.352C116.693 135.648 116.893 135.048 117.293 134.552C117.693 134.072 118.205 133.704 118.829 133.448C119.453 133.192 120.101 133.064 120.773 133.064L121.637 134.048C121.237 134.048 120.877 134.112 120.557 134.24C120.237 134.368 119.981 134.56 119.789 134.816C119.597 135.072 119.501 135.392 119.501 135.776V136.16C119.501 136.736 119.693 137.152 120.077 137.408C120.461 137.68 121.005 137.816 121.709 137.816H124.325C125.061 137.816 125.637 137.672 126.053 137.384C126.485 137.112 126.701 136.688 126.701 136.112V135.704C126.701 135.352 126.629 135.056 126.485 134.816C126.341 134.576 126.109 134.384 125.789 134.24C125.469 134.112 125.037 134.048 124.493 134.048H121.277C119.997 134.048 119.029 133.8 118.373 133.304C117.733 132.808 117.413 132.184 117.413 131.432C117.413 130.792 117.597 130.264 117.965 129.848C118.349 129.432 118.877 129.152 119.549 129.008C119.005 128.752 118.573 128.424 118.253 128.024C117.949 127.624 117.733 127.192 117.605 126.728C117.477 126.264 117.413 125.792 117.413 125.312C117.413 124.336 117.613 123.544 118.013 122.936C118.413 122.312 118.997 121.856 119.765 121.568C120.533 121.264 121.485 121.112 122.621 121.112H129.557V122.768L127.277 123.08C127.437 123.24 127.605 123.432 127.781 123.656C127.973 123.88 128.133 124.176 128.261 124.544C128.389 124.912 128.453 125.392 128.453 125.984C128.453 126.704 128.301 127.36 127.997 127.952C127.709 128.544 127.229 129.016 126.557 129.368C125.885 129.72 124.981 129.896 123.845 129.896H121.661C121.149 129.896 120.733 129.976 120.413 130.136C120.093 130.296 119.933 130.568 119.933 130.952C119.933 131.272 120.061 131.496 120.317 131.624C120.573 131.752 120.845 131.816 121.133 131.816H124.949C125.925 131.816 126.749 131.944 127.421 132.2C128.109 132.456 128.629 132.856 128.981 133.4C129.333 133.944 129.509 134.664 129.509 135.56V135.968C129.509 137.2 129.109 138.168 128.309 138.872C127.525 139.576 126.317 139.928 124.685 139.928H120.917ZM122.141 127.664H123.533C124.125 127.664 124.581 127.576 124.901 127.4C125.237 127.208 125.461 126.96 125.573 126.656C125.701 126.336 125.765 125.984 125.765 125.6C125.765 125.056 125.677 124.624 125.501 124.304C125.341 123.968 125.101 123.728 124.781 123.584C124.477 123.44 124.101 123.368 123.653 123.368H122.309C121.589 123.368 121.037 123.528 120.653 123.848C120.285 124.168 120.101 124.712 120.101 125.48C120.101 126.248 120.277 126.808 120.629 127.16C120.981 127.496 121.485 127.664 122.141 127.664ZM131.934 119.096C131.63 119.096 131.478 118.952 131.478 118.664V116.48C131.478 116.16 131.63 116 131.934 116H134.19C134.334 116 134.438 116.048 134.502 116.144C134.582 116.24 134.622 116.352 134.622 116.48V118.664C134.622 118.952 134.478 119.096 134.19 119.096H131.934ZM131.55 134V121.136H134.526V134H131.55ZM140.238 134.144C139.278 134.144 138.494 133.856 137.886 133.28C137.278 132.704 136.974 131.912 136.974 130.904V129.824C136.974 128.832 137.31 128.024 137.982 127.4C138.67 126.776 139.718 126.464 141.126 126.464H144.798V125.336C144.798 124.888 144.718 124.512 144.558 124.208C144.398 123.904 144.11 123.68 143.694 123.536C143.278 123.376 142.646 123.296 141.798 123.296H137.91V121.568C138.502 121.408 139.198 121.272 139.998 121.16C140.798 121.032 141.75 120.968 142.854 120.968C143.91 120.952 144.806 121.08 145.542 121.352C146.278 121.608 146.83 122.04 147.198 122.648C147.582 123.256 147.774 124.088 147.774 125.144V134H145.446L144.942 132.608C144.83 132.704 144.63 132.832 144.342 132.992C144.054 133.152 143.694 133.328 143.262 133.52C142.83 133.696 142.35 133.848 141.822 133.976C141.31 134.088 140.782 134.144 140.238 134.144ZM141.678 132.056C141.886 132.056 142.118 132.032 142.374 131.984C142.646 131.92 142.918 131.856 143.19 131.792C143.462 131.712 143.71 131.64 143.934 131.576C144.174 131.496 144.366 131.424 144.51 131.36C144.67 131.296 144.766 131.256 144.798 131.24V127.88L142.014 128.024C141.278 128.088 140.742 128.28 140.406 128.6C140.086 128.92 139.926 129.344 139.926 129.872V130.4C139.926 130.8 140.006 131.128 140.166 131.384C140.342 131.624 140.558 131.792 140.814 131.888C141.086 131.984 141.374 132.04 141.678 132.056Z" fill="white"/>
<path d="M40.7729 164V148.976L37.4369 149.576V147.68L41.0849 146.12H43.7489V164H40.7729ZM46.6323 164V161.6L52.7763 155.576C53.3203 155.048 53.7603 154.56 54.0963 154.112C54.4323 153.664 54.6803 153.224 54.8403 152.792C55.0003 152.344 55.0803 151.856 55.0803 151.328C55.0803 150.848 54.9843 150.432 54.7923 150.08C54.6163 149.712 54.3043 149.432 53.8563 149.24C53.4243 149.048 52.8163 148.952 52.0323 148.952H47.1123V146.624C47.8643 146.496 48.6963 146.384 49.6083 146.288C50.5363 146.192 51.5443 146.144 52.6323 146.144C54.0083 146.144 55.0883 146.336 55.8723 146.72C56.6563 147.088 57.2163 147.632 57.5523 148.352C57.8883 149.056 58.0563 149.896 58.0563 150.872C58.0563 151.672 57.9443 152.408 57.7203 153.08C57.5123 153.752 57.1843 154.4 56.7363 155.024C56.3043 155.632 55.7523 156.264 55.0803 156.92L50.5923 161.312H58.6323V164H46.6323ZM60.0211 165.728L66.7651 145.52H69.7411L62.9971 165.728H60.0211ZM71.3589 164V161.6L77.5029 155.576C78.0469 155.048 78.4869 154.56 78.8229 154.112C79.1589 153.664 79.4069 153.224 79.5669 152.792C79.7269 152.344 79.8069 151.856 79.8069 151.328C79.8069 150.848 79.7109 150.432 79.5189 150.08C79.3429 149.712 79.0309 149.432 78.5829 149.24C78.1509 149.048 77.5429 148.952 76.7589 148.952H71.8389V146.624C72.5909 146.496 73.4229 146.384 74.3349 146.288C75.2629 146.192 76.2709 146.144 77.3589 146.144C78.7349 146.144 79.8149 146.336 80.5989 146.72C81.3829 147.088 81.9429 147.632 82.2789 148.352C82.6149 149.056 82.7829 149.896 82.7829 150.872C82.7829 151.672 82.6709 152.408 82.4469 153.08C82.2389 153.752 81.9109 154.4 81.4629 155.024C81.0309 155.632 80.4789 156.264 79.8069 156.92L75.3189 161.312H83.3589V164H71.3589ZM90.3637 164.096C89.4357 164.096 88.6277 163.936 87.9397 163.616C87.2517 163.28 86.7237 162.784 86.3557 162.128C85.9877 161.456 85.8037 160.624 85.8037 159.632V150.728C85.8037 149.72 85.9877 148.88 86.3557 148.208C86.7397 147.52 87.2757 147.008 87.9637 146.672C88.6517 146.32 89.4597 146.144 90.3877 146.144H94.0117C95.0037 146.144 95.8197 146.328 96.4597 146.696C97.1157 147.064 97.6037 147.592 97.9237 148.28C98.2437 148.952 98.4037 149.768 98.4037 150.728V159.632C98.4037 161.104 98.0117 162.216 97.2277 162.968C96.4437 163.72 95.3637 164.096 93.9877 164.096H90.3637ZM91.0597 161.408H93.2197C93.9877 161.408 94.5477 161.224 94.8997 160.856C95.2677 160.472 95.4517 159.92 95.4517 159.2V151.016C95.4517 150.232 95.2597 149.672 94.8757 149.336C94.5077 148.984 93.9957 148.808 93.3397 148.808H90.9637C90.2757 148.808 89.7397 149 89.3557 149.384C88.9717 149.752 88.7797 150.296 88.7797 151.016V159.2C88.7797 159.952 88.9797 160.512 89.3797 160.88C89.7797 161.232 90.3397 161.408 91.0597 161.408ZM101.101 164V161.6L107.245 155.576C107.789 155.048 108.229 154.56 108.565 154.112C108.901 153.664 109.149 153.224 109.309 152.792C109.469 152.344 109.549 151.856 109.549 151.328C109.549 150.848 109.453 150.432 109.261 150.08C109.085 149.712 108.773 149.432 108.325 149.24C107.893 149.048 107.285 148.952 106.501 148.952H101.581V146.624C102.333 146.496 103.165 146.384 104.077 146.288C105.005 146.192 106.013 146.144 107.101 146.144C108.477 146.144 109.557 146.336 110.341 146.72C111.125 147.088 111.685 147.632 112.021 148.352C112.357 149.056 112.525 149.896 112.525 150.872C112.525 151.672 112.413 152.408 112.189 153.08C111.981 153.752 111.653 154.4 111.205 155.024C110.773 155.632 110.221 156.264 109.549 156.92L105.061 161.312H113.101V164H101.101ZM120.106 164.096C119.178 164.096 118.37 163.936 117.682 163.616C116.994 163.28 116.466 162.784 116.098 162.128C115.73 161.456 115.546 160.624 115.546 159.632V150.728C115.546 149.72 115.73 148.88 116.098 148.208C116.482 147.52 117.018 147.008 117.706 146.672C118.394 146.32 119.202 146.144 120.13 146.144H123.754C124.746 146.144 125.562 146.328 126.202 146.696C126.858 147.064 127.346 147.592 127.666 148.28C127.986 148.952 128.146 149.768 128.146 150.728V159.632C128.146 161.104 127.754 162.216 126.97 162.968C126.186 163.72 125.106 164.096 123.73 164.096H120.106ZM120.802 161.408H122.962C123.73 161.408 124.29 161.224 124.642 160.856C125.01 160.472 125.194 159.92 125.194 159.2V151.016C125.194 150.232 125.002 149.672 124.618 149.336C124.25 148.984 123.738 148.808 123.082 148.808H120.706C120.018 148.808 119.482 149 119.098 149.384C118.714 149.752 118.522 150.296 118.522 151.016V159.2C118.522 159.952 118.722 160.512 119.122 160.88C119.522 161.232 120.082 161.408 120.802 161.408Z" fill="#A0A0A0"/>
<line x1="5" y1="5" x2="5" y2="40" stroke="url(#paint0_linear_50_2)" stroke-width="10" stroke-linecap="round"/>
<defs>
<linearGradient id="paint0_linear_50_2" x1="4.99997" y1="0" x2="4.99997" y2="45" gradientUnits="userSpaceOnUse">
<stop stop-color="#E75918"/>
<stop offset="1" stop-color="#EB920C"/>
</linearGradient>
</defs>
</svg>
