<svg width="50" height="50" viewBox="0 0 50 50" fill="none" xmlns="http://www.w3.org/2000/svg">
<path d="M25 43.75C22.3958 43.75 19.9566 43.2552 17.6823 42.2656C15.408 41.276 13.4201 39.9392 11.7188 38.2552C10.0174 36.5712 8.68056 34.5833 7.70833 32.2917C6.73611 30 6.25 27.5521 6.25 24.9479C6.25 22.3438 6.73611 19.9045 7.70833 17.6302C8.68056 15.3559 10.0174 13.3767 11.7188 11.6927C13.4201 10.0087 15.408 8.68056 17.6823 7.70833C19.9566 6.73611 22.3958 6.25 25 6.25C27.6042 6.25 30.0434 6.73611 32.3177 7.70833C34.592 8.68056 36.5799 10.0087 38.2812 11.6927C39.9826 13.3767 41.3194 15.3559 42.2917 17.6302C43.2639 19.9045 43.75 22.3438 43.75 24.9479C43.75 27.5521 43.2639 30 42.2917 32.2917C41.3194 34.5833 39.9826 36.5712 38.2812 38.2552C36.5799 39.9392 34.592 41.276 32.3177 42.2656C30.0434 43.2552 27.6042 43.75 25 43.75ZM25 42.2396C26.3889 40.7118 27.5087 39.1146 28.3594 37.4479C29.2101 35.7812 29.9132 33.8715 30.4688 31.7188H19.5833C20.1389 33.9757 20.842 35.9288 21.6927 37.5781C22.5434 39.2274 23.6458 40.7812 25 42.2396ZM22.8125 42.0312C21.7361 40.816 20.7552 39.2882 19.8698 37.4479C18.9844 35.6076 18.3333 33.6979 17.9167 31.7188H9.11458C10.4688 34.6354 12.2917 36.9531 14.5833 38.6719C16.875 40.3906 19.6181 41.5104 22.8125 42.0312ZM27.2396 42.0312C30.191 41.5799 32.8733 40.4514 35.2865 38.6458C37.6997 36.8403 39.566 34.5312 40.8854 31.7188H32.1354C31.5451 33.7674 30.816 35.6944 29.9479 37.5C29.0799 39.3056 28.1771 40.816 27.2396 42.0312ZM8.64583 30.1042H17.6042C17.4306 29.1319 17.3177 28.2205 17.2656 27.3698C17.2135 26.5191 17.1875 25.7118 17.1875 24.9479C17.1875 24.1146 17.2222 23.2899 17.2917 22.474C17.3611 21.658 17.4653 20.7986 17.6042 19.8958H8.64583C8.36806 20.6597 8.1684 21.467 8.04687 22.3177C7.92535 23.1684 7.86458 24.0451 7.86458 24.9479C7.86458 25.8854 7.92535 26.7795 8.04687 27.6302C8.1684 28.4809 8.36806 29.3056 8.64583 30.1042ZM19.2188 30.1042H30.7812C30.9549 29.0972 31.0677 28.1944 31.1198 27.3958C31.1719 26.5972 31.1979 25.7812 31.1979 24.9479C31.1979 24.1493 31.1719 23.3594 31.1198 22.5781C31.0677 21.7969 30.9549 20.9028 30.7812 19.8958H19.2188C19.0451 20.9028 18.9323 21.7969 18.8802 22.5781C18.8281 23.3594 18.8021 24.1493 18.8021 24.9479C18.8021 25.7812 18.8281 26.5972 18.8802 27.3958C18.9323 28.1944 19.0451 29.0972 19.2188 30.1042ZM32.3958 30.1042H41.3542C41.6319 29.3056 41.8316 28.4809 41.9531 27.6302C42.0747 26.7795 42.1354 25.8854 42.1354 24.9479C42.1354 24.0451 42.0747 23.1684 41.9531 22.3177C41.8316 21.467 41.6319 20.6597 41.3542 19.8958H32.4479C32.5868 20.9722 32.6823 21.9097 32.7344 22.7083C32.7865 23.5069 32.8125 24.2535 32.8125 24.9479C32.8125 25.7465 32.7778 26.5538 32.7083 27.3698C32.6389 28.1858 32.5347 29.0972 32.3958 30.1042ZM32.0833 18.2812H40.8854C39.566 15.3299 37.7344 12.9688 35.3906 11.1979C33.0469 9.42708 30.3125 8.33333 27.1875 7.91667C28.2639 9.27083 29.2274 10.8333 30.0781 12.6042C30.9288 14.375 31.5972 16.2674 32.0833 18.2812ZM19.5833 18.2812H30.5208C29.9653 16.1979 29.2274 14.2795 28.3073 12.526C27.3872 10.7726 26.2847 9.18403 25 7.76042C23.75 9.01042 22.6997 10.4601 21.849 12.1094C20.9983 13.7587 20.2431 15.816 19.5833 18.2812ZM9.11458 18.2812H17.9167C18.4028 16.3021 19.0625 14.4358 19.8958 12.6823C20.7292 10.9288 21.684 9.35764 22.7604 7.96875C19.6354 8.38542 16.9097 9.47049 14.5833 11.224C12.2569 12.9774 10.434 15.3299 9.11458 18.2812Z" fill="#E65618"/>
</svg>
