<svg width="271" height="265" viewBox="0 0 271 265" fill="none" xmlns="http://www.w3.org/2000/svg">
<rect x="19.827" y="15" width="251" height="250" rx="10" fill="#323232"/>
<path d="M46.0603 59V43.952H40.9723V41.288H54.1003V43.952H49.0363V59H46.0603ZM60.0123 59.12C59.6283 59.12 59.1963 59.08 58.7163 59C58.2523 58.936 57.8043 58.784 57.3723 58.544C56.9403 58.288 56.5883 57.912 56.3163 57.416C56.0443 56.92 55.9083 56.24 55.9083 55.376V45.152C55.9083 44.4 56.0203 43.776 56.2443 43.28C56.4683 42.768 56.7643 42.368 57.1323 42.08C57.5163 41.792 57.9323 41.592 58.3803 41.48C58.8443 41.352 59.3003 41.288 59.7483 41.288C60.8683 41.288 61.8763 41.304 62.7723 41.336C63.6683 41.368 64.4843 41.4 65.2203 41.432C65.9723 41.464 66.6683 41.504 67.3083 41.552V44.024H60.6123C60.0683 44.024 59.6363 44.16 59.3163 44.432C59.0123 44.704 58.8603 45.128 58.8603 45.704V48.848L66.2283 49.016V51.344L58.8603 51.512V54.56C58.8603 55.04 58.9403 55.408 59.1003 55.664C59.2763 55.92 59.4923 56.096 59.7483 56.192C60.0203 56.288 60.3003 56.336 60.5883 56.336H67.3083V58.808C66.6043 58.872 65.8363 58.928 65.0043 58.976C64.1723 59.008 63.3243 59.032 62.4603 59.048C61.6123 59.08 60.7963 59.104 60.0123 59.12ZM76.0623 59.144C75.0223 59.144 74.1023 59.024 73.3023 58.784C72.5183 58.544 71.8543 58.104 71.3103 57.464C70.7823 56.824 70.3823 55.912 70.1103 54.728C69.8383 53.544 69.7023 51.992 69.7023 50.072C69.7023 48.264 69.8383 46.776 70.1103 45.608C70.3983 44.44 70.8143 43.528 71.3583 42.872C71.9183 42.216 72.5983 41.76 73.3983 41.504C74.1983 41.248 75.1103 41.12 76.1343 41.12C76.8383 41.12 77.5183 41.16 78.1743 41.24C78.8463 41.32 79.4623 41.416 80.0223 41.528C80.5983 41.64 81.0943 41.76 81.5103 41.888V44.168C81.2383 44.104 80.8543 44.048 80.3583 44C79.8623 43.936 79.3023 43.888 78.6783 43.856C78.0543 43.808 77.4063 43.784 76.7343 43.784C75.9983 43.784 75.3663 43.872 74.8383 44.048C74.3263 44.208 73.9103 44.512 73.5903 44.96C73.2703 45.408 73.0383 46.048 72.8943 46.88C72.7503 47.712 72.6783 48.792 72.6783 50.12C72.6783 51.432 72.7423 52.504 72.8703 53.336C73.0143 54.168 73.2303 54.816 73.5183 55.28C73.8223 55.728 74.2303 56.04 74.7423 56.216C75.2703 56.392 75.9263 56.48 76.7103 56.48C77.9103 56.48 78.8943 56.456 79.6623 56.408C80.4303 56.344 81.0463 56.28 81.5103 56.216V58.496C81.0623 58.624 80.5503 58.736 79.9743 58.832C79.4143 58.928 78.8063 59 78.1503 59.048C77.5103 59.112 76.8143 59.144 76.0623 59.144ZM84.366 59V41.288H86.742L94.806 53.936V41.288H97.782V59H95.406L87.342 46.352V59H84.366ZM107.58 59.144C106.396 59.144 105.356 59.032 104.46 58.808C103.58 58.568 102.836 58.144 102.228 57.536C101.636 56.912 101.188 56.008 100.884 54.824C100.596 53.64 100.452 52.096 100.452 50.192C100.452 48.272 100.604 46.72 100.908 45.536C101.212 44.336 101.66 43.424 102.252 42.8C102.86 42.16 103.604 41.72 104.484 41.48C105.38 41.24 106.412 41.12 107.58 41.12C108.78 41.12 109.828 41.24 110.724 41.48C111.62 41.72 112.364 42.16 112.956 42.8C113.548 43.424 113.988 44.336 114.276 45.536C114.58 46.72 114.732 48.272 114.732 50.192C114.732 52.096 114.58 53.64 114.276 54.824C113.988 56.008 113.54 56.912 112.932 57.536C112.34 58.144 111.596 58.568 110.7 58.808C109.82 59.032 108.78 59.144 107.58 59.144ZM107.58 56.48C108.364 56.48 109.02 56.4 109.548 56.24C110.092 56.064 110.524 55.76 110.844 55.328C111.164 54.88 111.396 54.248 111.54 53.432C111.684 52.6 111.756 51.52 111.756 50.192C111.756 48.784 111.676 47.664 111.516 46.832C111.372 45.984 111.14 45.344 110.82 44.912C110.5 44.464 110.076 44.168 109.548 44.024C109.02 43.864 108.364 43.784 107.58 43.784C106.844 43.784 106.212 43.864 105.684 44.024C105.156 44.168 104.724 44.464 104.388 44.912C104.068 45.344 103.828 45.984 103.668 46.832C103.508 47.664 103.428 48.784 103.428 50.192C103.428 51.52 103.492 52.6 103.62 53.432C103.764 54.248 103.996 54.88 104.316 55.328C104.636 55.76 105.06 56.064 105.588 56.24C106.132 56.4 106.796 56.48 107.58 56.48ZM106.86 40.016L108.996 36.68H111.444L108.588 40.016H106.86ZM121.556 59C120.724 59 120.004 58.872 119.396 58.616C118.804 58.36 118.356 57.944 118.052 57.368C117.748 56.776 117.596 56 117.596 55.04V41.288H120.548V54.56C120.548 55.008 120.628 55.368 120.788 55.64C120.948 55.896 121.156 56.072 121.412 56.168C121.684 56.264 121.98 56.312 122.3 56.312H128.18V59H121.556ZM136.971 59.144C135.787 59.144 134.747 59.032 133.851 58.808C132.971 58.568 132.227 58.144 131.619 57.536C131.027 56.912 130.579 56.008 130.275 54.824C129.987 53.64 129.843 52.096 129.843 50.192C129.843 48.272 129.995 46.72 130.299 45.536C130.603 44.336 131.051 43.424 131.643 42.8C132.251 42.16 132.995 41.72 133.875 41.48C134.771 41.24 135.803 41.12 136.971 41.12C138.171 41.12 139.219 41.24 140.115 41.48C141.011 41.72 141.755 42.16 142.347 42.8C142.939 43.424 143.379 44.336 143.667 45.536C143.971 46.72 144.123 48.272 144.123 50.192C144.123 52.096 143.971 53.64 143.667 54.824C143.379 56.008 142.931 56.912 142.323 57.536C141.731 58.144 140.987 58.568 140.091 58.808C139.211 59.032 138.171 59.144 136.971 59.144ZM136.971 56.48C137.755 56.48 138.411 56.4 138.939 56.24C139.483 56.064 139.915 55.76 140.235 55.328C140.555 54.88 140.787 54.248 140.931 53.432C141.075 52.6 141.147 51.52 141.147 50.192C141.147 48.784 141.067 47.664 140.907 46.832C140.763 45.984 140.531 45.344 140.211 44.912C139.891 44.464 139.467 44.168 138.939 44.024C138.411 43.864 137.755 43.784 136.971 43.784C136.235 43.784 135.603 43.864 135.075 44.024C134.547 44.168 134.115 44.464 133.779 44.912C133.459 45.344 133.219 45.984 133.059 46.832C132.899 47.664 132.819 48.784 132.819 50.192C132.819 51.52 132.883 52.6 133.011 53.432C133.155 54.248 133.387 54.88 133.707 55.328C134.027 55.76 134.451 56.064 134.979 56.24C135.523 56.4 136.187 56.48 136.971 56.48ZM152.074 59.12C150.954 59.12 150.034 58.92 149.314 58.52C148.61 58.12 148.05 57.536 147.634 56.768C147.234 56 146.946 55.056 146.77 53.936C146.61 52.816 146.53 51.544 146.53 50.12C146.53 48.664 146.618 47.376 146.794 46.256C146.986 45.136 147.314 44.2 147.778 43.448C148.242 42.68 148.882 42.104 149.698 41.72C150.53 41.32 151.594 41.12 152.89 41.12C153.626 41.12 154.33 41.152 155.002 41.216C155.674 41.264 156.322 41.344 156.946 41.456C157.57 41.568 158.178 41.696 158.77 41.84V44.12C158.434 44.072 157.978 44.024 157.402 43.976C156.842 43.928 156.218 43.888 155.53 43.856C154.842 43.808 154.13 43.784 153.394 43.784C152.338 43.784 151.53 43.992 150.97 44.408C150.41 44.808 150.026 45.472 149.818 46.4C149.61 47.328 149.506 48.576 149.506 50.144C149.506 51.376 149.562 52.4 149.674 53.216C149.786 54.016 149.97 54.656 150.226 55.136C150.498 55.6 150.858 55.928 151.306 56.12C151.77 56.296 152.33 56.384 152.986 56.384C153.69 56.384 154.37 56.32 155.026 56.192C155.698 56.048 156.258 55.896 156.706 55.736V51.656H153.13V49.352C153.45 49.304 153.834 49.264 154.282 49.232C154.746 49.2 155.226 49.176 155.722 49.16C156.218 49.128 156.706 49.112 157.186 49.112C157.666 49.112 158.098 49.12 158.482 49.136C158.882 49.136 159.242 49.152 159.562 49.184V59H157.33L156.922 57.776C156.426 58.064 155.746 58.36 154.882 58.664C154.018 58.968 153.082 59.12 152.074 59.12ZM169.526 59.144C168.342 59.144 167.302 59.032 166.406 58.808C165.526 58.568 164.782 58.144 164.174 57.536C163.582 56.912 163.134 56.008 162.83 54.824C162.542 53.64 162.398 52.096 162.398 50.192C162.398 48.272 162.55 46.72 162.854 45.536C163.158 44.336 163.606 43.424 164.198 42.8C164.806 42.16 165.55 41.72 166.43 41.48C167.326 41.24 168.358 41.12 169.526 41.12C170.726 41.12 171.774 41.24 172.67 41.48C173.566 41.72 174.31 42.16 174.902 42.8C175.494 43.424 175.934 44.336 176.222 45.536C176.526 46.72 176.678 48.272 176.678 50.192C176.678 52.096 176.526 53.64 176.222 54.824C175.934 56.008 175.486 56.912 174.878 57.536C174.286 58.144 173.542 58.568 172.646 58.808C171.766 59.032 170.726 59.144 169.526 59.144ZM169.526 56.48C170.31 56.48 170.966 56.4 171.494 56.24C172.038 56.064 172.47 55.76 172.79 55.328C173.11 54.88 173.342 54.248 173.486 53.432C173.63 52.6 173.702 51.52 173.702 50.192C173.702 48.784 173.622 47.664 173.462 46.832C173.318 45.984 173.086 45.344 172.766 44.912C172.446 44.464 172.022 44.168 171.494 44.024C170.966 43.864 170.31 43.784 169.526 43.784C168.79 43.784 168.158 43.864 167.63 44.024C167.102 44.168 166.67 44.464 166.334 44.912C166.014 45.344 165.774 45.984 165.614 46.832C165.454 47.664 165.374 48.784 165.374 50.192C165.374 51.52 165.438 52.6 165.566 53.432C165.71 54.248 165.942 54.88 166.262 55.328C166.582 55.76 167.006 56.064 167.534 56.24C168.078 56.4 168.742 56.48 169.526 56.48Z" fill="#A0A0A0"/>
<path d="M47.8763 237.144C47.4443 237.144 46.9803 237.128 46.4843 237.096C46.0043 237.08 45.5083 237.048 44.9963 237C44.5003 236.936 44.0283 236.88 43.5803 236.832C43.1323 236.768 42.7323 236.696 42.3803 236.616V234.288C42.8283 234.32 43.3483 234.352 43.9403 234.384C44.5483 234.416 45.1803 234.44 45.8363 234.456C46.4923 234.472 47.1243 234.48 47.7323 234.48C48.3723 234.48 48.9403 234.424 49.4363 234.312C49.9323 234.184 50.3163 233.968 50.5883 233.664C50.8603 233.36 50.9963 232.928 50.9963 232.368V231.528C50.9963 230.904 50.8203 230.424 50.4683 230.088C50.1163 229.752 49.5963 229.584 48.9083 229.584H47.2523C45.6363 229.584 44.3883 229.232 43.5083 228.528C42.6443 227.824 42.2123 226.616 42.2123 224.904V223.992C42.2123 222.28 42.6843 221.048 43.6283 220.296C44.5883 219.528 45.9563 219.144 47.7323 219.144C48.3403 219.144 48.9643 219.176 49.6043 219.24C50.2603 219.288 50.8843 219.352 51.4763 219.432C52.0683 219.512 52.5723 219.6 52.9883 219.696V222.024C52.2843 221.976 51.4763 221.928 50.5643 221.88C49.6683 221.832 48.8363 221.808 48.0683 221.808C47.4603 221.808 46.9243 221.872 46.4603 222C45.9963 222.128 45.6443 222.36 45.4043 222.696C45.1643 223.016 45.0443 223.496 45.0443 224.136V224.712C45.0443 225.464 45.2443 225.992 45.6443 226.296C46.0603 226.6 46.6523 226.752 47.4203 226.752H49.2683C50.3083 226.752 51.1643 226.944 51.8363 227.328C52.5083 227.712 53.0043 228.24 53.3243 228.912C53.6603 229.568 53.8283 230.32 53.8283 231.168V232.296C53.8283 233.608 53.5723 234.616 53.0603 235.32C52.5483 236.024 51.8443 236.504 50.9483 236.76C50.0523 237.016 49.0283 237.144 47.8763 237.144ZM60.7873 237.12C60.4033 237.12 59.9713 237.08 59.4913 237C59.0273 236.936 58.5793 236.784 58.1473 236.544C57.7153 236.288 57.3633 235.912 57.0913 235.416C56.8193 234.92 56.6833 234.24 56.6833 233.376V223.152C56.6833 222.4 56.7953 221.776 57.0193 221.28C57.2433 220.768 57.5393 220.368 57.9073 220.08C58.2913 219.792 58.7073 219.592 59.1553 219.48C59.6193 219.352 60.0753 219.288 60.5233 219.288C61.6433 219.288 62.6513 219.304 63.5473 219.336C64.4433 219.368 65.2593 219.4 65.9953 219.432C66.7473 219.464 67.4433 219.504 68.0833 219.552V222.024H61.3873C60.8433 222.024 60.4113 222.16 60.0913 222.432C59.7873 222.704 59.6353 223.128 59.6353 223.704V226.848L67.0033 227.016V229.344L59.6353 229.512V232.56C59.6353 233.04 59.7153 233.408 59.8753 233.664C60.0513 233.92 60.2673 234.096 60.5233 234.192C60.7953 234.288 61.0753 234.336 61.3633 234.336H68.0833V236.808C67.3793 236.872 66.6113 236.928 65.7793 236.976C64.9473 237.008 64.0993 237.032 63.2353 237.048C62.3873 237.08 61.5713 237.104 60.7873 237.12ZM71.1253 237V219.288H73.5013L81.5653 231.936V219.288H84.5413V237H82.1653L74.1013 224.352V237H71.1253ZM86.5637 237L92.3237 219.288H96.0677L101.828 237H98.7317L97.3637 232.8H90.9557L89.6117 237H86.5637ZM91.6517 230.136H96.6437L94.1477 221.832L91.6517 230.136ZM109.673 237.144C108.633 237.144 107.713 237.024 106.913 236.784C106.129 236.544 105.465 236.104 104.921 235.464C104.393 234.824 103.993 233.912 103.721 232.728C103.449 231.544 103.313 229.992 103.313 228.072C103.313 226.264 103.449 224.776 103.721 223.608C104.009 222.44 104.425 221.528 104.969 220.872C105.529 220.216 106.209 219.76 107.009 219.504C107.809 219.248 108.721 219.12 109.745 219.12C110.449 219.12 111.129 219.16 111.785 219.24C112.457 219.32 113.073 219.416 113.633 219.528C114.209 219.64 114.705 219.76 115.121 219.888V222.168C114.849 222.104 114.465 222.048 113.969 222C113.473 221.936 112.913 221.888 112.289 221.856C111.665 221.808 111.017 221.784 110.345 221.784C109.609 221.784 108.977 221.872 108.449 222.048C107.937 222.208 107.521 222.512 107.201 222.96C106.881 223.408 106.649 224.048 106.505 224.88C106.361 225.712 106.289 226.792 106.289 228.12C106.289 229.432 106.353 230.504 106.481 231.336C106.625 232.168 106.841 232.816 107.129 233.28C107.433 233.728 107.841 234.04 108.353 234.216C108.881 234.392 109.537 234.48 110.321 234.48C111.521 234.48 112.505 234.456 113.273 234.408C114.041 234.344 114.657 234.28 115.121 234.216V236.496C114.673 236.624 114.161 236.736 113.585 236.832C113.025 236.928 112.417 237 111.761 237.048C111.121 237.112 110.425 237.144 109.673 237.144Z" fill="#A0A0A0"/>
<path d="M45.1643 174V158.976L41.8283 159.576V157.68L45.4763 156.12H48.1403V174H45.1643ZM55.8957 174.096C54.9677 174.096 54.1597 173.936 53.4717 173.616C52.7837 173.28 52.2557 172.784 51.8877 172.128C51.5197 171.456 51.3357 170.624 51.3357 169.632V160.728C51.3357 159.72 51.5197 158.88 51.8877 158.208C52.2717 157.52 52.8077 157.008 53.4957 156.672C54.1837 156.32 54.9917 156.144 55.9197 156.144H59.5437C60.5357 156.144 61.3517 156.328 61.9917 156.696C62.6477 157.064 63.1357 157.592 63.4557 158.28C63.7757 158.952 63.9357 159.768 63.9357 160.728V169.632C63.9357 171.104 63.5437 172.216 62.7597 172.968C61.9757 173.72 60.8957 174.096 59.5197 174.096H55.8957ZM56.5917 171.408H58.7517C59.5197 171.408 60.0797 171.224 60.4317 170.856C60.7997 170.472 60.9837 169.92 60.9837 169.2V161.016C60.9837 160.232 60.7917 159.672 60.4077 159.336C60.0397 158.984 59.5277 158.808 58.8717 158.808H56.4957C55.8077 158.808 55.2717 159 54.8877 159.384C54.5037 159.752 54.3117 160.296 54.3117 161.016V169.2C54.3117 169.952 54.5117 170.512 54.9117 170.88C55.3117 171.232 55.8717 171.408 56.5917 171.408ZM65.889 175.728L72.633 155.52H75.609L68.865 175.728H65.889ZM77.2268 174V171.6L83.3708 165.576C83.9148 165.048 84.3548 164.56 84.6908 164.112C85.0268 163.664 85.2748 163.224 85.4348 162.792C85.5948 162.344 85.6748 161.856 85.6748 161.328C85.6748 160.848 85.5788 160.432 85.3868 160.08C85.2108 159.712 84.8988 159.432 84.4508 159.24C84.0188 159.048 83.4108 158.952 82.6268 158.952H77.7068V156.624C78.4588 156.496 79.2908 156.384 80.2028 156.288C81.1308 156.192 82.1388 156.144 83.2268 156.144C84.6028 156.144 85.6828 156.336 86.4668 156.72C87.2508 157.088 87.8108 157.632 88.1468 158.352C88.4828 159.056 88.6508 159.896 88.6508 160.872C88.6508 161.672 88.5388 162.408 88.3148 163.08C88.1068 163.752 87.7788 164.4 87.3308 165.024C86.8988 165.632 86.3468 166.264 85.6748 166.92L81.1868 171.312H89.2268V174H77.2268ZM96.2316 174.096C95.3036 174.096 94.4956 173.936 93.8076 173.616C93.1196 173.28 92.5916 172.784 92.2236 172.128C91.8556 171.456 91.6716 170.624 91.6716 169.632V160.728C91.6716 159.72 91.8556 158.88 92.2236 158.208C92.6076 157.52 93.1436 157.008 93.8316 156.672C94.5196 156.32 95.3276 156.144 96.2556 156.144H99.8796C100.872 156.144 101.688 156.328 102.328 156.696C102.984 157.064 103.472 157.592 103.792 158.28C104.112 158.952 104.272 159.768 104.272 160.728V169.632C104.272 171.104 103.88 172.216 103.096 172.968C102.312 173.72 101.232 174.096 99.8556 174.096H96.2316ZM96.9276 171.408H99.0876C99.8556 171.408 100.416 171.224 100.768 170.856C101.136 170.472 101.32 169.92 101.32 169.2V161.016C101.32 160.232 101.128 159.672 100.744 159.336C100.376 158.984 99.8636 158.808 99.2076 158.808H96.8316C96.1436 158.808 95.6076 159 95.2236 159.384C94.8396 159.752 94.6476 160.296 94.6476 161.016V169.2C94.6476 169.952 94.8476 170.512 95.2476 170.88C95.6476 171.232 96.2076 171.408 96.9276 171.408ZM106.969 174V171.6L113.113 165.576C113.657 165.048 114.097 164.56 114.433 164.112C114.769 163.664 115.017 163.224 115.177 162.792C115.337 162.344 115.417 161.856 115.417 161.328C115.417 160.848 115.321 160.432 115.129 160.08C114.953 159.712 114.641 159.432 114.193 159.24C113.761 159.048 113.153 158.952 112.369 158.952H107.449V156.624C108.201 156.496 109.033 156.384 109.945 156.288C110.873 156.192 111.881 156.144 112.969 156.144C114.345 156.144 115.425 156.336 116.209 156.72C116.993 157.088 117.553 157.632 117.889 158.352C118.225 159.056 118.393 159.896 118.393 160.872C118.393 161.672 118.281 162.408 118.057 163.08C117.849 163.752 117.521 164.4 117.073 165.024C116.641 165.632 116.089 166.264 115.417 166.92L110.929 171.312H118.969V174H106.969ZM127.654 174.12C126.646 174.12 125.606 174.088 124.534 174.024C123.462 173.96 122.47 173.88 121.558 173.784V171.456H127.774C128.398 171.456 128.91 171.352 129.31 171.144C129.71 170.936 130.006 170.656 130.198 170.304C130.39 169.936 130.486 169.544 130.486 169.128V167.64C130.486 166.984 130.31 166.472 129.958 166.104C129.606 165.72 129.038 165.528 128.254 165.528H126.694C126.102 165.528 125.638 165.656 125.302 165.912C124.982 166.168 124.774 166.56 124.678 167.088H121.87L122.374 156.288H132.814V158.952H124.942L124.702 163.968C124.926 163.68 125.262 163.448 125.71 163.272C126.158 163.096 126.686 163.008 127.294 163.008H129.286C130.214 163.008 130.982 163.192 131.59 163.56C132.214 163.912 132.678 164.4 132.982 165.024C133.302 165.632 133.462 166.328 133.462 167.112V169.728C133.462 170.736 133.23 171.568 132.766 172.224C132.318 172.864 131.662 173.344 130.798 173.664C129.934 173.968 128.886 174.12 127.654 174.12Z" fill="#A0A0A0"/>
<path d="M47.888 119.144C47.456 119.144 46.992 119.128 46.496 119.096C46.016 119.08 45.52 119.048 45.008 119C44.512 118.936 44.04 118.88 43.592 118.832C43.144 118.768 42.744 118.696 42.392 118.616V116.288C42.84 116.32 43.36 116.352 43.952 116.384C44.56 116.416 45.192 116.44 45.848 116.456C46.504 116.472 47.136 116.48 47.744 116.48C48.384 116.48 48.952 116.424 49.448 116.312C49.944 116.184 50.328 115.968 50.6 115.664C50.872 115.36 51.008 114.928 51.008 114.368V113.528C51.008 112.904 50.832 112.424 50.48 112.088C50.128 111.752 49.608 111.584 48.92 111.584H47.264C45.648 111.584 44.4 111.232 43.52 110.528C42.656 109.824 42.224 108.616 42.224 106.904V105.992C42.224 104.28 42.696 103.048 43.64 102.296C44.6 101.528 45.968 101.144 47.744 101.144C48.352 101.144 48.976 101.176 49.616 101.24C50.272 101.288 50.896 101.352 51.488 101.432C52.08 101.512 52.584 101.6 53 101.696V104.024C52.296 103.976 51.488 103.928 50.576 103.88C49.68 103.832 48.848 103.808 48.08 103.808C47.472 103.808 46.936 103.872 46.472 104C46.008 104.128 45.656 104.36 45.416 104.696C45.176 105.016 45.056 105.496 45.056 106.136V106.712C45.056 107.464 45.256 107.992 45.656 108.296C46.072 108.6 46.664 108.752 47.432 108.752H49.28C50.32 108.752 51.176 108.944 51.848 109.328C52.52 109.712 53.016 110.24 53.336 110.912C53.672 111.568 53.84 112.32 53.84 113.168V114.296C53.84 115.608 53.584 116.616 53.072 117.32C52.56 118.024 51.856 118.504 50.96 118.76C50.064 119.016 49.04 119.144 47.888 119.144ZM56.935 104.096C56.631 104.096 56.479 103.952 56.479 103.664V101.48C56.479 101.16 56.631 101 56.935 101H59.191C59.335 101 59.439 101.048 59.503 101.144C59.583 101.24 59.623 101.352 59.623 101.48V103.664C59.623 103.952 59.479 104.096 59.191 104.096H56.935ZM56.551 119V106.136H59.527V119H56.551ZM67.1825 119.144C66.8145 119.144 66.3905 119.128 65.9105 119.096C65.4465 119.08 64.9745 119.048 64.4945 119C64.0305 118.968 63.5985 118.92 63.1985 118.856C62.7985 118.792 62.4705 118.72 62.2145 118.64V116.888H67.7585C68.1585 116.888 68.4945 116.856 68.7665 116.792C69.0545 116.728 69.2705 116.6 69.4145 116.408C69.5585 116.216 69.6305 115.928 69.6305 115.544V115.088C69.6305 114.688 69.4945 114.376 69.2225 114.152C68.9665 113.912 68.5105 113.792 67.8545 113.792H65.9105C65.1585 113.792 64.4865 113.688 63.8945 113.48C63.3185 113.272 62.8625 112.92 62.5265 112.424C62.1905 111.928 62.0225 111.256 62.0225 110.408V109.688C62.0225 108.872 62.1745 108.2 62.4785 107.672C62.7985 107.128 63.3185 106.72 64.0385 106.448C64.7745 106.16 65.7505 106.016 66.9665 106.016C67.4785 106.016 68.0305 106.04 68.6225 106.088C69.2145 106.136 69.7825 106.2 70.3265 106.28C70.8705 106.344 71.3025 106.424 71.6225 106.52V108.272H66.3905C65.7985 108.272 65.3425 108.376 65.0225 108.584C64.7185 108.776 64.5665 109.144 64.5665 109.688V110.144C64.5665 110.496 64.6385 110.76 64.7825 110.936C64.9265 111.112 65.1425 111.232 65.4305 111.296C65.7185 111.36 66.0625 111.392 66.4625 111.392H68.4545C69.7185 111.392 70.6545 111.68 71.2625 112.256C71.8705 112.832 72.1745 113.648 72.1745 114.704V115.76C72.1745 116.624 71.9745 117.304 71.5745 117.8C71.1745 118.296 70.5985 118.648 69.8465 118.856C69.1105 119.048 68.2225 119.144 67.1825 119.144ZM79.3248 119C78.3968 119 77.6368 118.864 77.0448 118.592C76.4528 118.304 76.0208 117.832 75.7488 117.176C75.4928 116.52 75.3728 115.656 75.3888 114.584L75.4848 108.536H73.4688V106.616L75.5808 106.136L76.0128 102.536H78.3408V106.136H81.6048V108.536H78.3408V114.56C78.3408 114.976 78.3808 115.32 78.4608 115.592C78.5408 115.848 78.6528 116.056 78.7968 116.216C78.9568 116.36 79.1248 116.464 79.3008 116.528C79.4768 116.592 79.6608 116.632 79.8528 116.648L81.4608 116.816V119H79.3248ZM89.0414 119.12C87.6494 119.12 86.5374 118.928 85.7054 118.544C84.8894 118.16 84.2974 117.496 83.9294 116.552C83.5614 115.592 83.3774 114.264 83.3774 112.568C83.3774 110.84 83.5534 109.504 83.9054 108.56C84.2574 107.6 84.8414 106.928 85.6574 106.544C86.4734 106.16 87.5774 105.968 88.9694 105.968C90.2014 105.968 91.1854 106.096 91.9214 106.352C92.6734 106.592 93.2174 107.032 93.5534 107.672C93.9054 108.296 94.0814 109.184 94.0814 110.336C94.0814 111.152 93.9214 111.808 93.6014 112.304C93.2814 112.784 92.8174 113.128 92.2094 113.336C91.6174 113.544 90.9134 113.648 90.0974 113.648H86.3294C86.3614 114.448 86.4654 115.088 86.6414 115.568C86.8334 116.032 87.1694 116.368 87.6494 116.576C88.1454 116.784 88.8654 116.888 89.8094 116.888H93.6974V118.64C93.0414 118.768 92.3454 118.88 91.6094 118.976C90.8894 119.072 90.0334 119.12 89.0414 119.12ZM86.3054 111.848H89.8094C90.3694 111.848 90.7774 111.744 91.0334 111.536C91.3054 111.312 91.4414 110.912 91.4414 110.336C91.4414 109.776 91.3614 109.336 91.2014 109.016C91.0414 108.696 90.7774 108.472 90.4094 108.344C90.0414 108.2 89.5614 108.128 88.9694 108.128C88.2974 108.128 87.7694 108.232 87.3854 108.44C87.0014 108.648 86.7214 109.024 86.5454 109.568C86.3854 110.096 86.3054 110.856 86.3054 111.848ZM96.7229 119V106.136H99.1469L99.6989 107.48C100.291 107.064 100.939 106.704 101.643 106.4C102.363 106.08 103.211 105.92 104.187 105.92C104.987 105.92 105.659 106.096 106.203 106.448C106.763 106.784 107.179 107.224 107.451 107.768C107.819 107.48 108.259 107.2 108.771 106.928C109.299 106.64 109.859 106.4 110.451 106.208C111.043 106.016 111.627 105.92 112.203 105.92C113.195 105.92 113.987 106.12 114.579 106.52C115.187 106.904 115.619 107.448 115.875 108.152C116.131 108.84 116.259 109.64 116.259 110.552V119H113.283V110.792C113.283 110.328 113.195 109.936 113.019 109.616C112.843 109.296 112.595 109.048 112.275 108.872C111.971 108.696 111.595 108.608 111.147 108.608C110.571 108.608 109.987 108.72 109.395 108.944C108.819 109.168 108.291 109.44 107.811 109.76C107.875 109.92 107.915 110.096 107.931 110.288C107.963 110.48 107.979 110.672 107.979 110.864V119H105.003V110.792C105.003 110.328 104.915 109.936 104.739 109.616C104.563 109.296 104.315 109.048 103.995 108.872C103.691 108.696 103.315 108.608 102.867 108.608C102.451 108.608 102.059 108.648 101.691 108.728C101.339 108.808 101.003 108.928 100.683 109.088C100.363 109.248 100.035 109.44 99.6989 109.664V119H96.7229ZM121.863 119.144C120.903 119.144 120.119 118.856 119.511 118.28C118.903 117.704 118.599 116.912 118.599 115.904V114.824C118.599 113.832 118.935 113.024 119.607 112.4C120.295 111.776 121.343 111.464 122.751 111.464H126.423V110.336C126.423 109.888 126.343 109.512 126.183 109.208C126.023 108.904 125.735 108.68 125.319 108.536C124.903 108.376 124.271 108.296 123.423 108.296H119.535V106.568C120.127 106.408 120.823 106.272 121.623 106.16C122.423 106.032 123.375 105.968 124.479 105.968C125.535 105.952 126.431 106.08 127.167 106.352C127.903 106.608 128.455 107.04 128.823 107.648C129.207 108.256 129.399 109.088 129.399 110.144V119H127.071L126.567 117.608C126.455 117.704 126.255 117.832 125.967 117.992C125.679 118.152 125.319 118.328 124.887 118.52C124.455 118.696 123.975 118.848 123.447 118.976C122.935 119.088 122.407 119.144 121.863 119.144ZM123.303 117.056C123.511 117.056 123.743 117.032 123.999 116.984C124.271 116.92 124.543 116.856 124.815 116.792C125.087 116.712 125.335 116.64 125.559 116.576C125.799 116.496 125.991 116.424 126.135 116.36C126.295 116.296 126.391 116.256 126.423 116.24V112.88L123.639 113.024C122.903 113.088 122.367 113.28 122.031 113.6C121.711 113.92 121.551 114.344 121.551 114.872V115.4C121.551 115.8 121.631 116.128 121.791 116.384C121.967 116.624 122.183 116.792 122.439 116.888C122.711 116.984 122.999 117.04 123.303 117.056ZM136.956 119.144C136.588 119.144 136.164 119.128 135.684 119.096C135.22 119.08 134.748 119.048 134.268 119C133.804 118.968 133.372 118.92 132.972 118.856C132.572 118.792 132.244 118.72 131.988 118.64V116.888H137.532C137.932 116.888 138.268 116.856 138.54 116.792C138.828 116.728 139.044 116.6 139.188 116.408C139.332 116.216 139.404 115.928 139.404 115.544V115.088C139.404 114.688 139.268 114.376 138.996 114.152C138.74 113.912 138.284 113.792 137.628 113.792H135.684C134.932 113.792 134.26 113.688 133.668 113.48C133.092 113.272 132.636 112.92 132.3 112.424C131.964 111.928 131.796 111.256 131.796 110.408V109.688C131.796 108.872 131.948 108.2 132.252 107.672C132.572 107.128 133.092 106.72 133.812 106.448C134.548 106.16 135.524 106.016 136.74 106.016C137.252 106.016 137.804 106.04 138.396 106.088C138.988 106.136 139.556 106.2 140.1 106.28C140.644 106.344 141.076 106.424 141.396 106.52V108.272H136.164C135.572 108.272 135.116 108.376 134.796 108.584C134.492 108.776 134.34 109.144 134.34 109.688V110.144C134.34 110.496 134.412 110.76 134.556 110.936C134.7 111.112 134.916 111.232 135.204 111.296C135.492 111.36 135.836 111.392 136.236 111.392H138.228C139.492 111.392 140.428 111.68 141.036 112.256C141.644 112.832 141.948 113.648 141.948 114.704V115.76C141.948 116.624 141.748 117.304 141.348 117.8C140.948 118.296 140.372 118.648 139.62 118.856C138.884 119.048 137.996 119.144 136.956 119.144ZM150.699 124.688V106.136H153.171L153.675 107.408C153.979 107.168 154.331 106.936 154.731 106.712C155.131 106.488 155.563 106.312 156.027 106.184C156.491 106.04 156.971 105.968 157.467 105.968C158.283 105.968 158.979 106.128 159.555 106.448C160.147 106.768 160.627 107.224 160.995 107.816C161.363 108.392 161.627 109.088 161.787 109.904C161.963 110.704 162.051 111.592 162.051 112.568C162.051 113.976 161.899 115.176 161.595 116.168C161.307 117.144 160.827 117.888 160.155 118.4C159.499 118.912 158.603 119.168 157.467 119.168C156.827 119.168 156.171 119.08 155.499 118.904C154.843 118.728 154.235 118.496 153.675 118.208V124.688H150.699ZM156.531 116.72C156.995 116.72 157.419 116.6 157.803 116.36C158.187 116.104 158.491 115.68 158.715 115.088C158.955 114.496 159.075 113.656 159.075 112.568C159.075 111.528 158.963 110.696 158.739 110.072C158.515 109.448 158.211 109.008 157.827 108.752C157.459 108.496 157.035 108.368 156.555 108.368C155.963 108.368 155.427 108.464 154.947 108.656C154.467 108.832 154.043 109.016 153.675 109.208V115.928C154.091 116.168 154.547 116.36 155.043 116.504C155.539 116.648 156.035 116.72 156.531 116.72ZM167.356 119.144C166.396 119.144 165.612 118.856 165.004 118.28C164.396 117.704 164.092 116.912 164.092 115.904V114.824C164.092 113.832 164.428 113.024 165.1 112.4C165.788 111.776 166.836 111.464 168.244 111.464H171.916V110.336C171.916 109.888 171.836 109.512 171.676 109.208C171.516 108.904 171.228 108.68 170.812 108.536C170.396 108.376 169.764 108.296 168.916 108.296H165.028V106.568C165.62 106.408 166.316 106.272 167.116 106.16C167.916 106.032 168.868 105.968 169.972 105.968C171.028 105.952 171.924 106.08 172.66 106.352C173.396 106.608 173.948 107.04 174.316 107.648C174.7 108.256 174.892 109.088 174.892 110.144V119H172.564L172.06 117.608C171.948 117.704 171.748 117.832 171.46 117.992C171.172 118.152 170.812 118.328 170.38 118.52C169.948 118.696 169.468 118.848 168.94 118.976C168.428 119.088 167.9 119.144 167.356 119.144ZM168.796 117.056C169.004 117.056 169.236 117.032 169.492 116.984C169.764 116.92 170.036 116.856 170.308 116.792C170.58 116.712 170.828 116.64 171.052 116.576C171.292 116.496 171.484 116.424 171.628 116.36C171.788 116.296 171.884 116.256 171.916 116.24V112.88L169.132 113.024C168.396 113.088 167.86 113.28 167.524 113.6C167.204 113.92 167.044 114.344 167.044 114.872V115.4C167.044 115.8 167.124 116.128 167.284 116.384C167.46 116.624 167.676 116.792 167.932 116.888C168.204 116.984 168.492 117.04 168.796 117.056ZM177.84 119V106.136H180.144L180.816 108.2C181.328 107.576 181.896 107.048 182.52 106.616C183.144 106.184 183.888 105.968 184.752 105.968C184.928 105.968 185.112 105.984 185.304 106.016C185.496 106.032 185.672 106.064 185.832 106.112V109.136C185.608 109.104 185.368 109.08 185.112 109.064C184.856 109.048 184.608 109.04 184.368 109.04C183.872 109.04 183.416 109.096 183 109.208C182.6 109.32 182.224 109.496 181.872 109.736C181.52 109.96 181.168 110.248 180.816 110.6V119H177.84ZM190.09 119.144C189.13 119.144 188.346 118.856 187.738 118.28C187.13 117.704 186.826 116.912 186.826 115.904V114.824C186.826 113.832 187.162 113.024 187.834 112.4C188.522 111.776 189.57 111.464 190.978 111.464H194.65V110.336C194.65 109.888 194.57 109.512 194.41 109.208C194.25 108.904 193.962 108.68 193.546 108.536C193.13 108.376 192.498 108.296 191.65 108.296H187.762V106.568C188.354 106.408 189.05 106.272 189.85 106.16C190.65 106.032 191.602 105.968 192.706 105.968C193.762 105.952 194.658 106.08 195.394 106.352C196.13 106.608 196.682 107.04 197.05 107.648C197.434 108.256 197.626 109.088 197.626 110.144V119H195.298L194.794 117.608C194.682 117.704 194.482 117.832 194.194 117.992C193.906 118.152 193.546 118.328 193.114 118.52C192.682 118.696 192.202 118.848 191.674 118.976C191.162 119.088 190.634 119.144 190.09 119.144ZM191.53 117.056C191.738 117.056 191.97 117.032 192.226 116.984C192.498 116.92 192.77 116.856 193.042 116.792C193.314 116.712 193.562 116.64 193.786 116.576C194.026 116.496 194.218 116.424 194.362 116.36C194.522 116.296 194.618 116.256 194.65 116.24V112.88L191.866 113.024C191.13 113.088 190.594 113.28 190.258 113.6C189.938 113.92 189.778 114.344 189.778 114.872V115.4C189.778 115.8 189.858 116.128 190.018 116.384C190.194 116.624 190.41 116.792 190.666 116.888C190.938 116.984 191.226 117.04 191.53 117.056ZM42.656 144V126.288H45.608V144H42.656ZM48.7698 144V131.136H51.1938L51.7458 132.48C52.2738 132.08 52.9138 131.72 53.6658 131.4C54.4338 131.08 55.2258 130.92 56.0418 130.92C57.0498 130.92 57.8418 131.128 58.4178 131.544C58.9938 131.944 59.4018 132.488 59.6418 133.176C59.8978 133.864 60.0258 134.616 60.0258 135.432V144H57.0498V135.792C57.0498 135.328 56.9618 134.936 56.7858 134.616C56.6098 134.296 56.3618 134.048 56.0418 133.872C55.7378 133.696 55.3618 133.608 54.9138 133.608C54.4978 133.608 54.1058 133.648 53.7378 133.728C53.3858 133.808 53.0498 133.928 52.7298 134.088C52.4098 134.248 52.0818 134.44 51.7458 134.664V144H48.7698ZM67.6764 144C66.7484 144 65.9884 143.864 65.3964 143.592C64.8044 143.304 64.3724 142.832 64.1004 142.176C63.8444 141.52 63.7244 140.656 63.7404 139.584L63.8364 133.536H61.8204V131.616L63.9324 131.136L64.3644 127.536H66.6924V131.136H69.9564V133.536H66.6924V139.56C66.6924 139.976 66.7324 140.32 66.8124 140.592C66.8924 140.848 67.0044 141.056 67.1484 141.216C67.3084 141.36 67.4764 141.464 67.6524 141.528C67.8284 141.592 68.0124 141.632 68.2044 141.648L69.8124 141.816V144H67.6764ZM77.393 144.12C76.001 144.12 74.889 143.928 74.057 143.544C73.241 143.16 72.649 142.496 72.281 141.552C71.913 140.592 71.729 139.264 71.729 137.568C71.729 135.84 71.905 134.504 72.257 133.56C72.609 132.6 73.193 131.928 74.009 131.544C74.825 131.16 75.929 130.968 77.321 130.968C78.553 130.968 79.537 131.096 80.273 131.352C81.025 131.592 81.569 132.032 81.905 132.672C82.257 133.296 82.433 134.184 82.433 135.336C82.433 136.152 82.273 136.808 81.953 137.304C81.633 137.784 81.169 138.128 80.561 138.336C79.969 138.544 79.265 138.648 78.449 138.648H74.681C74.713 139.448 74.817 140.088 74.993 140.568C75.185 141.032 75.521 141.368 76.001 141.576C76.497 141.784 77.217 141.888 78.161 141.888H82.049V143.64C81.393 143.768 80.697 143.88 79.961 143.976C79.241 144.072 78.385 144.12 77.393 144.12ZM74.657 136.848H78.161C78.721 136.848 79.129 136.744 79.385 136.536C79.657 136.312 79.793 135.912 79.793 135.336C79.793 134.776 79.713 134.336 79.553 134.016C79.393 133.696 79.129 133.472 78.761 133.344C78.393 133.2 77.913 133.128 77.321 133.128C76.649 133.128 76.121 133.232 75.737 133.44C75.353 133.648 75.073 134.024 74.897 134.568C74.737 135.096 74.657 135.856 74.657 136.848ZM85.0745 144V131.136H87.3785L88.0505 133.2C88.5625 132.576 89.1305 132.048 89.7545 131.616C90.3785 131.184 91.1225 130.968 91.9865 130.968C92.1625 130.968 92.3465 130.984 92.5385 131.016C92.7305 131.032 92.9065 131.064 93.0665 131.112V134.136C92.8425 134.104 92.6025 134.08 92.3465 134.064C92.0905 134.048 91.8425 134.04 91.6025 134.04C91.1065 134.04 90.6505 134.096 90.2345 134.208C89.8345 134.32 89.4585 134.496 89.1065 134.736C88.7545 134.96 88.4025 135.248 88.0505 135.6V144H85.0745ZM95.1292 144V131.136H97.5532L98.1052 132.48C98.6332 132.08 99.2732 131.72 100.025 131.4C100.793 131.08 101.585 130.92 102.401 130.92C103.409 130.92 104.201 131.128 104.777 131.544C105.353 131.944 105.761 132.488 106.001 133.176C106.257 133.864 106.385 134.616 106.385 135.432V144H103.409V135.792C103.409 135.328 103.321 134.936 103.145 134.616C102.969 134.296 102.721 134.048 102.401 133.872C102.097 133.696 101.721 133.608 101.273 133.608C100.857 133.608 100.465 133.648 100.097 133.728C99.7452 133.808 99.4092 133.928 99.0892 134.088C98.7692 134.248 98.4412 134.44 98.1052 134.664V144H95.1292ZM114.612 144.12C113.22 144.12 112.108 143.928 111.276 143.544C110.46 143.16 109.868 142.496 109.5 141.552C109.132 140.592 108.948 139.264 108.948 137.568C108.948 135.84 109.124 134.504 109.476 133.56C109.828 132.6 110.412 131.928 111.228 131.544C112.044 131.16 113.148 130.968 114.54 130.968C115.772 130.968 116.756 131.096 117.492 131.352C118.244 131.592 118.788 132.032 119.124 132.672C119.476 133.296 119.652 134.184 119.652 135.336C119.652 136.152 119.492 136.808 119.172 137.304C118.852 137.784 118.388 138.128 117.78 138.336C117.188 138.544 116.484 138.648 115.668 138.648H111.9C111.932 139.448 112.036 140.088 112.212 140.568C112.404 141.032 112.74 141.368 113.22 141.576C113.716 141.784 114.436 141.888 115.38 141.888H119.268V143.64C118.612 143.768 117.916 143.88 117.18 143.976C116.46 144.072 115.604 144.12 114.612 144.12ZM111.876 136.848H115.38C115.94 136.848 116.348 136.744 116.604 136.536C116.876 136.312 117.012 135.912 117.012 135.336C117.012 134.776 116.932 134.336 116.772 134.016C116.612 133.696 116.348 133.472 115.98 133.344C115.612 133.2 115.132 133.128 114.54 133.128C113.868 133.128 113.34 133.232 112.956 133.44C112.572 133.648 112.292 134.024 112.116 134.568C111.956 135.096 111.876 135.856 111.876 136.848ZM126.973 144C126.045 144 125.285 143.864 124.693 143.592C124.101 143.304 123.669 142.832 123.397 142.176C123.141 141.52 123.021 140.656 123.037 139.584L123.133 133.536H121.117V131.616L123.229 131.136L123.661 127.536H125.989V131.136H129.253V133.536H125.989V139.56C125.989 139.976 126.029 140.32 126.109 140.592C126.189 140.848 126.301 141.056 126.445 141.216C126.605 141.36 126.773 141.464 126.949 141.528C127.125 141.592 127.309 141.632 127.501 141.648L129.109 141.816V144H126.973Z" fill="white"/>
<line x1="5" y1="5" x2="5" y2="40" stroke="url(#paint0_linear_50_4)" stroke-width="10" stroke-linecap="round"/>
<defs>
<linearGradient id="paint0_linear_50_4" x1="4.99997" y1="0" x2="4.99997" y2="45" gradientUnits="userSpaceOnUse">
<stop stop-color="#E75918"/>
<stop offset="1" stop-color="#EB920C"/>
</linearGradient>
</defs>
</svg>
