<svg width="270" height="265" viewBox="0 0 270 265" fill="none" xmlns="http://www.w3.org/2000/svg">
<rect x="21" y="15" width="249" height="250" rx="10" fill="#323232"/>
<path d="M40.2717 50V34.952H35.1837V32.288H48.3117V34.952H43.2477V50H40.2717ZM54.2237 50.12C53.8397 50.12 53.4077 50.08 52.9277 50C52.4637 49.936 52.0157 49.784 51.5837 49.544C51.1517 49.288 50.7997 48.912 50.5277 48.416C50.2557 47.92 50.1197 47.24 50.1197 46.376V36.152C50.1197 35.4 50.2317 34.776 50.4557 34.28C50.6797 33.768 50.9757 33.368 51.3437 33.08C51.7277 32.792 52.1437 32.592 52.5917 32.48C53.0557 32.352 53.5117 32.288 53.9597 32.288C55.0797 32.288 56.0877 32.304 56.9837 32.336C57.8797 32.368 58.6957 32.4 59.4317 32.432C60.1837 32.464 60.8797 32.504 61.5197 32.552V35.024H54.8237C54.2797 35.024 53.8477 35.16 53.5277 35.432C53.2237 35.704 53.0717 36.128 53.0717 36.704V39.848L60.4397 40.016V42.344L53.0717 42.512V45.56C53.0717 46.04 53.1517 46.408 53.3117 46.664C53.4877 46.92 53.7037 47.096 53.9597 47.192C54.2317 47.288 54.5117 47.336 54.7997 47.336H61.5197V49.808C60.8157 49.872 60.0477 49.928 59.2157 49.976C58.3837 50.008 57.5357 50.032 56.6717 50.048C55.8237 50.08 55.0077 50.104 54.2237 50.12ZM55.2317 31.016L57.3677 27.68H59.8157L56.9597 31.016H55.2317ZM70.2737 50.144C69.2337 50.144 68.3137 50.024 67.5137 49.784C66.7297 49.544 66.0657 49.104 65.5217 48.464C64.9937 47.824 64.5937 46.912 64.3217 45.728C64.0497 44.544 63.9137 42.992 63.9137 41.072C63.9137 39.264 64.0497 37.776 64.3217 36.608C64.6097 35.44 65.0257 34.528 65.5697 33.872C66.1297 33.216 66.8097 32.76 67.6097 32.504C68.4097 32.248 69.3217 32.12 70.3457 32.12C71.0497 32.12 71.7297 32.16 72.3857 32.24C73.0577 32.32 73.6737 32.416 74.2337 32.528C74.8097 32.64 75.3057 32.76 75.7217 32.888V35.168C75.4497 35.104 75.0657 35.048 74.5697 35C74.0737 34.936 73.5137 34.888 72.8897 34.856C72.2657 34.808 71.6177 34.784 70.9457 34.784C70.2097 34.784 69.5777 34.872 69.0497 35.048C68.5377 35.208 68.1217 35.512 67.8017 35.96C67.4817 36.408 67.2497 37.048 67.1057 37.88C66.9617 38.712 66.8897 39.792 66.8897 41.12C66.8897 42.432 66.9537 43.504 67.0817 44.336C67.2257 45.168 67.4417 45.816 67.7297 46.28C68.0337 46.728 68.4417 47.04 68.9537 47.216C69.4817 47.392 70.1377 47.48 70.9217 47.48C72.1217 47.48 73.1057 47.456 73.8737 47.408C74.6417 47.344 75.2577 47.28 75.7217 47.216V49.496C75.2737 49.624 74.7617 49.736 74.1857 49.832C73.6257 49.928 73.0177 50 72.3617 50.048C71.7217 50.112 71.0257 50.144 70.2737 50.144ZM78.5774 50V32.288H80.9534L89.0174 44.936V32.288H91.9934V50H89.6174L81.5534 37.352V50H78.5774ZM95.1197 50V32.288H98.0717V50H95.1197ZM107.282 50.144C106.242 50.144 105.322 50.024 104.522 49.784C103.738 49.544 103.074 49.104 102.53 48.464C102.002 47.824 101.602 46.912 101.33 45.728C101.058 44.544 100.922 42.992 100.922 41.072C100.922 39.264 101.058 37.776 101.33 36.608C101.618 35.44 102.034 34.528 102.578 33.872C103.138 33.216 103.818 32.76 104.618 32.504C105.418 32.248 106.33 32.12 107.354 32.12C108.058 32.12 108.738 32.16 109.394 32.24C110.066 32.32 110.682 32.416 111.242 32.528C111.818 32.64 112.314 32.76 112.73 32.888V35.168C112.458 35.104 112.074 35.048 111.578 35C111.082 34.936 110.522 34.888 109.898 34.856C109.274 34.808 108.626 34.784 107.954 34.784C107.218 34.784 106.586 34.872 106.058 35.048C105.546 35.208 105.13 35.512 104.81 35.96C104.49 36.408 104.258 37.048 104.114 37.88C103.97 38.712 103.898 39.792 103.898 41.12C103.898 42.432 103.962 43.504 104.09 44.336C104.234 45.168 104.45 45.816 104.738 46.28C105.042 46.728 105.45 47.04 105.962 47.216C106.49 47.392 107.146 47.48 107.93 47.48C109.13 47.48 110.114 47.456 110.882 47.408C111.65 47.344 112.266 47.28 112.73 47.216V49.496C112.282 49.624 111.77 49.736 111.194 49.832C110.634 49.928 110.026 50 109.37 50.048C108.73 50.112 108.034 50.144 107.282 50.144ZM121.831 50.144C120.647 50.144 119.607 50.032 118.711 49.808C117.831 49.568 117.087 49.144 116.479 48.536C115.887 47.912 115.439 47.008 115.135 45.824C114.847 44.64 114.703 43.096 114.703 41.192C114.703 39.272 114.855 37.72 115.159 36.536C115.463 35.336 115.911 34.424 116.503 33.8C117.111 33.16 117.855 32.72 118.735 32.48C119.631 32.24 120.663 32.12 121.831 32.12C123.031 32.12 124.079 32.24 124.975 32.48C125.871 32.72 126.615 33.16 127.207 33.8C127.799 34.424 128.239 35.336 128.527 36.536C128.831 37.72 128.983 39.272 128.983 41.192C128.983 43.096 128.831 44.64 128.527 45.824C128.239 47.008 127.791 47.912 127.183 48.536C126.591 49.144 125.847 49.568 124.951 49.808C124.071 50.032 123.031 50.144 121.831 50.144ZM121.831 47.48C122.615 47.48 123.271 47.4 123.799 47.24C124.343 47.064 124.775 46.76 125.095 46.328C125.415 45.88 125.647 45.248 125.791 44.432C125.935 43.6 126.007 42.52 126.007 41.192C126.007 39.784 125.927 38.664 125.767 37.832C125.623 36.984 125.391 36.344 125.071 35.912C124.751 35.464 124.327 35.168 123.799 35.024C123.271 34.864 122.615 34.784 121.831 34.784C121.095 34.784 120.463 34.864 119.935 35.024C119.407 35.168 118.975 35.464 118.639 35.912C118.319 36.344 118.079 36.984 117.919 37.832C117.759 38.664 117.679 39.784 117.679 41.192C117.679 42.52 117.743 43.6 117.871 44.432C118.015 45.248 118.247 45.88 118.567 46.328C118.887 46.76 119.311 47.064 119.839 47.24C120.383 47.4 121.047 47.48 121.831 47.48Z" fill="#A0A0A0"/>
<path d="M41.6877 246.144C41.2557 246.144 40.7917 246.128 40.2957 246.096C39.8157 246.08 39.3197 246.048 38.8077 246C38.3117 245.936 37.8397 245.88 37.3917 245.832C36.9437 245.768 36.5437 245.696 36.1917 245.616V243.288C36.6397 243.32 37.1597 243.352 37.7517 243.384C38.3597 243.416 38.9917 243.44 39.6477 243.456C40.3037 243.472 40.9357 243.48 41.5437 243.48C42.1837 243.48 42.7517 243.424 43.2477 243.312C43.7437 243.184 44.1277 242.968 44.3997 242.664C44.6717 242.36 44.8077 241.928 44.8077 241.368V240.528C44.8077 239.904 44.6317 239.424 44.2797 239.088C43.9277 238.752 43.4077 238.584 42.7197 238.584H41.0637C39.4477 238.584 38.1997 238.232 37.3197 237.528C36.4557 236.824 36.0237 235.616 36.0237 233.904V232.992C36.0237 231.28 36.4957 230.048 37.4397 229.296C38.3997 228.528 39.7677 228.144 41.5437 228.144C42.1517 228.144 42.7757 228.176 43.4157 228.24C44.0717 228.288 44.6957 228.352 45.2877 228.432C45.8797 228.512 46.3837 228.6 46.7997 228.696V231.024C46.0957 230.976 45.2877 230.928 44.3757 230.88C43.4797 230.832 42.6477 230.808 41.8797 230.808C41.2717 230.808 40.7357 230.872 40.2717 231C39.8077 231.128 39.4557 231.36 39.2157 231.696C38.9757 232.016 38.8557 232.496 38.8557 233.136V233.712C38.8557 234.464 39.0557 234.992 39.4557 235.296C39.8717 235.6 40.4637 235.752 41.2317 235.752H43.0797C44.1197 235.752 44.9757 235.944 45.6477 236.328C46.3197 236.712 46.8157 237.24 47.1357 237.912C47.4717 238.568 47.6397 239.32 47.6397 240.168V241.296C47.6397 242.608 47.3837 243.616 46.8717 244.32C46.3597 245.024 45.6557 245.504 44.7597 245.76C43.8637 246.016 42.8397 246.144 41.6877 246.144ZM54.5987 246.12C54.2147 246.12 53.7827 246.08 53.3027 246C52.8387 245.936 52.3907 245.784 51.9587 245.544C51.5267 245.288 51.1747 244.912 50.9027 244.416C50.6307 243.92 50.4947 243.24 50.4947 242.376V232.152C50.4947 231.4 50.6067 230.776 50.8307 230.28C51.0547 229.768 51.3507 229.368 51.7187 229.08C52.1027 228.792 52.5187 228.592 52.9667 228.48C53.4307 228.352 53.8867 228.288 54.3347 228.288C55.4547 228.288 56.4627 228.304 57.3587 228.336C58.2547 228.368 59.0707 228.4 59.8067 228.432C60.5587 228.464 61.2547 228.504 61.8947 228.552V231.024H55.1987C54.6547 231.024 54.2227 231.16 53.9027 231.432C53.5987 231.704 53.4467 232.128 53.4467 232.704V235.848L60.8147 236.016V238.344L53.4467 238.512V241.56C53.4467 242.04 53.5267 242.408 53.6867 242.664C53.8627 242.92 54.0787 243.096 54.3347 243.192C54.6067 243.288 54.8867 243.336 55.1747 243.336H61.8947V245.808C61.1907 245.872 60.4227 245.928 59.5907 245.976C58.7587 246.008 57.9107 246.032 57.0467 246.048C56.1987 246.08 55.3827 246.104 54.5987 246.12ZM64.9367 246V228.288H67.3127L75.3767 240.936V228.288H78.3527V246H75.9767L67.9127 233.352V246H64.9367ZM80.3751 246L86.1351 228.288H89.8791L95.6391 246H92.5431L91.1751 241.8H84.7671L83.4231 246H80.3751ZM85.4631 239.136H90.4551L87.9591 230.832L85.4631 239.136ZM103.485 246.144C102.445 246.144 101.525 246.024 100.725 245.784C99.9407 245.544 99.2767 245.104 98.7327 244.464C98.2047 243.824 97.8047 242.912 97.5327 241.728C97.2607 240.544 97.1247 238.992 97.1247 237.072C97.1247 235.264 97.2607 233.776 97.5327 232.608C97.8207 231.44 98.2367 230.528 98.7807 229.872C99.3407 229.216 100.021 228.76 100.821 228.504C101.621 228.248 102.533 228.12 103.557 228.12C104.261 228.12 104.941 228.16 105.597 228.24C106.269 228.32 106.885 228.416 107.445 228.528C108.021 228.64 108.517 228.76 108.933 228.888V231.168C108.661 231.104 108.277 231.048 107.781 231C107.285 230.936 106.725 230.888 106.101 230.856C105.477 230.808 104.829 230.784 104.157 230.784C103.421 230.784 102.789 230.872 102.261 231.048C101.749 231.208 101.333 231.512 101.013 231.96C100.693 232.408 100.461 233.048 100.317 233.88C100.173 234.712 100.101 235.792 100.101 237.12C100.101 238.432 100.165 239.504 100.293 240.336C100.437 241.168 100.653 241.816 100.941 242.28C101.245 242.728 101.653 243.04 102.165 243.216C102.693 243.392 103.349 243.48 104.133 243.48C105.333 243.48 106.317 243.456 107.085 243.408C107.853 243.344 108.469 243.28 108.933 243.216V245.496C108.485 245.624 107.973 245.736 107.397 245.832C106.837 245.928 106.229 246 105.573 246.048C104.933 246.112 104.237 246.144 103.485 246.144Z" fill="#A0A0A0"/>
<path d="M41.0226 161V145.976L37.6866 146.576V144.68L41.3346 143.12H43.9986V161H41.0226ZM51.7539 161.096C50.8259 161.096 50.0179 160.936 49.3299 160.616C48.6419 160.28 48.1139 159.784 47.7459 159.128C47.3779 158.456 47.1939 157.624 47.1939 156.632V147.728C47.1939 146.72 47.3779 145.88 47.7459 145.208C48.1299 144.52 48.6659 144.008 49.3539 143.672C50.0419 143.32 50.8499 143.144 51.7779 143.144H55.4019C56.3939 143.144 57.2099 143.328 57.8499 143.696C58.5059 144.064 58.9939 144.592 59.3139 145.28C59.6339 145.952 59.7939 146.768 59.7939 147.728V156.632C59.7939 158.104 59.4019 159.216 58.6179 159.968C57.8339 160.72 56.7539 161.096 55.3779 161.096H51.7539ZM52.4499 158.408H54.6099C55.3779 158.408 55.9379 158.224 56.2899 157.856C56.6579 157.472 56.8419 156.92 56.8419 156.2V148.016C56.8419 147.232 56.6499 146.672 56.2659 146.336C55.8979 145.984 55.3859 145.808 54.7299 145.808H52.3539C51.6659 145.808 51.1299 146 50.7459 146.384C50.3619 146.752 50.1699 147.296 50.1699 148.016V156.2C50.1699 156.952 50.3699 157.512 50.7699 157.88C51.1699 158.232 51.7299 158.408 52.4499 158.408ZM61.7473 162.728L68.4913 142.52H71.4673L64.7233 162.728H61.7473ZM73.0851 161V158.6L79.2291 152.576C79.7731 152.048 80.2131 151.56 80.5491 151.112C80.8851 150.664 81.1331 150.224 81.2931 149.792C81.4531 149.344 81.5331 148.856 81.5331 148.328C81.5331 147.848 81.4371 147.432 81.2451 147.08C81.0691 146.712 80.7571 146.432 80.3091 146.24C79.8771 146.048 79.2691 145.952 78.4851 145.952H73.5651V143.624C74.3171 143.496 75.1491 143.384 76.0611 143.288C76.9891 143.192 77.9971 143.144 79.0851 143.144C80.4611 143.144 81.5411 143.336 82.3251 143.72C83.1091 144.088 83.6691 144.632 84.0051 145.352C84.3411 146.056 84.5091 146.896 84.5091 147.872C84.5091 148.672 84.3971 149.408 84.1731 150.08C83.9651 150.752 83.6371 151.4 83.1891 152.024C82.7571 152.632 82.2051 153.264 81.5331 153.92L77.0451 158.312H85.0851V161H73.0851ZM92.0899 161.096C91.1619 161.096 90.3539 160.936 89.6659 160.616C88.9779 160.28 88.4499 159.784 88.0819 159.128C87.7139 158.456 87.5299 157.624 87.5299 156.632V147.728C87.5299 146.72 87.7139 145.88 88.0819 145.208C88.4659 144.52 89.0019 144.008 89.6899 143.672C90.3779 143.32 91.1859 143.144 92.1139 143.144H95.7379C96.7299 143.144 97.5459 143.328 98.1859 143.696C98.8419 144.064 99.3299 144.592 99.6499 145.28C99.9699 145.952 100.13 146.768 100.13 147.728V156.632C100.13 158.104 99.7379 159.216 98.9539 159.968C98.1699 160.72 97.0899 161.096 95.7139 161.096H92.0899ZM92.7859 158.408H94.9459C95.7139 158.408 96.2739 158.224 96.6259 157.856C96.9939 157.472 97.1779 156.92 97.1779 156.2V148.016C97.1779 147.232 96.9859 146.672 96.6019 146.336C96.2339 145.984 95.7219 145.808 95.0659 145.808H92.6899C92.0019 145.808 91.4659 146 91.0819 146.384C90.6979 146.752 90.5059 147.296 90.5059 148.016V156.2C90.5059 156.952 90.7059 157.512 91.1059 157.88C91.5059 158.232 92.0659 158.408 92.7859 158.408ZM102.827 161V158.6L108.971 152.576C109.515 152.048 109.955 151.56 110.291 151.112C110.627 150.664 110.875 150.224 111.035 149.792C111.195 149.344 111.275 148.856 111.275 148.328C111.275 147.848 111.179 147.432 110.987 147.08C110.811 146.712 110.499 146.432 110.051 146.24C109.619 146.048 109.011 145.952 108.227 145.952H103.307V143.624C104.059 143.496 104.891 143.384 105.803 143.288C106.731 143.192 107.739 143.144 108.827 143.144C110.203 143.144 111.283 143.336 112.067 143.72C112.851 144.088 113.411 144.632 113.747 145.352C114.083 146.056 114.251 146.896 114.251 147.872C114.251 148.672 114.139 149.408 113.915 150.08C113.707 150.752 113.379 151.4 112.931 152.024C112.499 152.632 111.947 153.264 111.275 153.92L106.787 158.312H114.827V161H102.827ZM116.96 161V158.6L123.104 152.576C123.648 152.048 124.088 151.56 124.424 151.112C124.76 150.664 125.008 150.224 125.168 149.792C125.328 149.344 125.408 148.856 125.408 148.328C125.408 147.848 125.312 147.432 125.12 147.08C124.944 146.712 124.632 146.432 124.184 146.24C123.752 146.048 123.144 145.952 122.36 145.952H117.44V143.624C118.192 143.496 119.024 143.384 119.936 143.288C120.864 143.192 121.872 143.144 122.96 143.144C124.336 143.144 125.416 143.336 126.2 143.72C126.984 144.088 127.544 144.632 127.88 145.352C128.216 146.056 128.384 146.896 128.384 147.872C128.384 148.672 128.272 149.408 128.048 150.08C127.84 150.752 127.512 151.4 127.064 152.024C126.632 152.632 126.08 153.264 125.408 153.92L120.92 158.312H128.96V161H116.96Z" fill="#A0A0A0"/>
<path d="M36.4557 131V113.288H43.7757C44.9277 113.288 45.8877 113.496 46.6557 113.912C47.4397 114.312 48.0637 114.904 48.5277 115.688C48.9917 116.456 49.3197 117.384 49.5117 118.472C49.7197 119.56 49.8237 120.784 49.8237 122.144C49.8237 124.096 49.5997 125.728 49.1517 127.04C48.7037 128.336 48.0317 129.32 47.1357 129.992C46.2397 130.664 45.1197 131 43.7757 131H36.4557ZM39.4077 128.336H43.4877C44.3037 128.336 44.9517 128.096 45.4317 127.616C45.9277 127.136 46.2877 126.432 46.5117 125.504C46.7517 124.576 46.8717 123.456 46.8717 122.144C46.8717 120.928 46.7997 119.92 46.6557 119.12C46.5117 118.32 46.3037 117.688 46.0317 117.224C45.7597 116.76 45.4077 116.432 44.9757 116.24C44.5597 116.048 44.0637 115.952 43.4877 115.952H39.4077V128.336ZM57.5521 131.12C56.1601 131.12 55.0481 130.928 54.2161 130.544C53.4001 130.16 52.8081 129.496 52.4401 128.552C52.0721 127.592 51.8881 126.264 51.8881 124.568C51.8881 122.84 52.0641 121.504 52.4161 120.56C52.7681 119.6 53.3521 118.928 54.1681 118.544C54.9841 118.16 56.0881 117.968 57.4801 117.968C58.7121 117.968 59.6961 118.096 60.4321 118.352C61.1841 118.592 61.7281 119.032 62.0641 119.672C62.4161 120.296 62.5921 121.184 62.5921 122.336C62.5921 123.152 62.4321 123.808 62.1121 124.304C61.7921 124.784 61.3281 125.128 60.7201 125.336C60.1281 125.544 59.4241 125.648 58.6081 125.648H54.8401C54.8721 126.448 54.9761 127.088 55.1521 127.568C55.3441 128.032 55.6801 128.368 56.1601 128.576C56.6561 128.784 57.3761 128.888 58.3201 128.888H62.2081V130.64C61.5521 130.768 60.8561 130.88 60.1201 130.976C59.4001 131.072 58.5441 131.12 57.5521 131.12ZM54.8161 123.848H58.3201C58.8801 123.848 59.2881 123.744 59.5441 123.536C59.8161 123.312 59.9521 122.912 59.9521 122.336C59.9521 121.776 59.8721 121.336 59.7121 121.016C59.5521 120.696 59.2881 120.472 58.9201 120.344C58.5521 120.2 58.0721 120.128 57.4801 120.128C56.8081 120.128 56.2801 120.232 55.8961 120.44C55.5121 120.648 55.2321 121.024 55.0561 121.568C54.8961 122.096 54.8161 122.856 54.8161 123.848ZM69.8416 131.144C69.4736 131.144 69.0496 131.128 68.5696 131.096C68.1056 131.08 67.6336 131.048 67.1536 131C66.6896 130.968 66.2576 130.92 65.8576 130.856C65.4576 130.792 65.1296 130.72 64.8736 130.64V128.888H70.4176C70.8176 128.888 71.1536 128.856 71.4256 128.792C71.7136 128.728 71.9296 128.6 72.0736 128.408C72.2176 128.216 72.2896 127.928 72.2896 127.544V127.088C72.2896 126.688 72.1536 126.376 71.8816 126.152C71.6256 125.912 71.1696 125.792 70.5136 125.792H68.5696C67.8176 125.792 67.1456 125.688 66.5536 125.48C65.9776 125.272 65.5216 124.92 65.1856 124.424C64.8496 123.928 64.6816 123.256 64.6816 122.408V121.688C64.6816 120.872 64.8336 120.2 65.1376 119.672C65.4576 119.128 65.9776 118.72 66.6976 118.448C67.4336 118.16 68.4096 118.016 69.6256 118.016C70.1376 118.016 70.6896 118.04 71.2816 118.088C71.8736 118.136 72.4416 118.2 72.9856 118.28C73.5296 118.344 73.9616 118.424 74.2816 118.52V120.272H69.0496C68.4576 120.272 68.0016 120.376 67.6816 120.584C67.3776 120.776 67.2256 121.144 67.2256 121.688V122.144C67.2256 122.496 67.2976 122.76 67.4416 122.936C67.5856 123.112 67.8016 123.232 68.0896 123.296C68.3776 123.36 68.7216 123.392 69.1216 123.392H71.1136C72.3776 123.392 73.3136 123.68 73.9216 124.256C74.5296 124.832 74.8336 125.648 74.8336 126.704V127.76C74.8336 128.624 74.6336 129.304 74.2336 129.8C73.8336 130.296 73.2576 130.648 72.5056 130.856C71.7696 131.048 70.8816 131.144 69.8416 131.144ZM77.6879 116.096C77.3839 116.096 77.2319 115.952 77.2319 115.664V113.48C77.2319 113.16 77.3839 113 77.6879 113H79.9439C80.0879 113 80.1919 113.048 80.2559 113.144C80.3359 113.24 80.3759 113.352 80.3759 113.48V115.664C80.3759 115.952 80.2319 116.096 79.9439 116.096H77.6879ZM77.3039 131V118.136H80.2799V131H77.3039ZM86.6153 136.928C85.7993 136.928 85.0713 136.808 84.4313 136.568C83.7913 136.344 83.2873 135.992 82.9193 135.512C82.5673 135.048 82.3913 134.48 82.3913 133.808V133.352C82.3913 132.648 82.5913 132.048 82.9913 131.552C83.3913 131.072 83.9033 130.704 84.5273 130.448C85.1513 130.192 85.7993 130.064 86.4713 130.064L87.3353 131.048C86.9353 131.048 86.5753 131.112 86.2553 131.24C85.9353 131.368 85.6793 131.56 85.4873 131.816C85.2953 132.072 85.1993 132.392 85.1993 132.776V133.16C85.1993 133.736 85.3913 134.152 85.7753 134.408C86.1593 134.68 86.7033 134.816 87.4073 134.816H90.0233C90.7593 134.816 91.3353 134.672 91.7513 134.384C92.1833 134.112 92.3993 133.688 92.3993 133.112V132.704C92.3993 132.352 92.3273 132.056 92.1833 131.816C92.0393 131.576 91.8073 131.384 91.4873 131.24C91.1673 131.112 90.7353 131.048 90.1913 131.048H86.9753C85.6953 131.048 84.7273 130.8 84.0713 130.304C83.4313 129.808 83.1113 129.184 83.1113 128.432C83.1113 127.792 83.2953 127.264 83.6633 126.848C84.0473 126.432 84.5753 126.152 85.2473 126.008C84.7033 125.752 84.2713 125.424 83.9513 125.024C83.6473 124.624 83.4313 124.192 83.3033 123.728C83.1753 123.264 83.1113 122.792 83.1113 122.312C83.1113 121.336 83.3113 120.544 83.7113 119.936C84.1113 119.312 84.6953 118.856 85.4633 118.568C86.2313 118.264 87.1833 118.112 88.3193 118.112H95.2553V119.768L92.9753 120.08C93.1353 120.24 93.3033 120.432 93.4793 120.656C93.6713 120.88 93.8313 121.176 93.9593 121.544C94.0873 121.912 94.1513 122.392 94.1513 122.984C94.1513 123.704 93.9993 124.36 93.6953 124.952C93.4073 125.544 92.9273 126.016 92.2553 126.368C91.5833 126.72 90.6793 126.896 89.5433 126.896H87.3593C86.8473 126.896 86.4313 126.976 86.1113 127.136C85.7913 127.296 85.6313 127.568 85.6313 127.952C85.6313 128.272 85.7593 128.496 86.0153 128.624C86.2713 128.752 86.5433 128.816 86.8313 128.816H90.6473C91.6233 128.816 92.4473 128.944 93.1193 129.2C93.8073 129.456 94.3273 129.856 94.6793 130.4C95.0313 130.944 95.2073 131.664 95.2073 132.56V132.968C95.2073 134.2 94.8073 135.168 94.0073 135.872C93.2233 136.576 92.0153 136.928 90.3833 136.928H86.6153ZM87.8393 124.664H89.2313C89.8233 124.664 90.2793 124.576 90.5993 124.4C90.9353 124.208 91.1593 123.96 91.2713 123.656C91.3993 123.336 91.4633 122.984 91.4633 122.6C91.4633 122.056 91.3753 121.624 91.1993 121.304C91.0393 120.968 90.7993 120.728 90.4793 120.584C90.1753 120.44 89.7993 120.368 89.3513 120.368H88.0073C87.2873 120.368 86.7353 120.528 86.3513 120.848C85.9833 121.168 85.7993 121.712 85.7993 122.48C85.7993 123.248 85.9753 123.808 86.3273 124.16C86.6793 124.496 87.1833 124.664 87.8393 124.664ZM97.2492 131V118.136H99.6732L100.225 119.48C100.753 119.08 101.393 118.72 102.145 118.4C102.913 118.08 103.705 117.92 104.521 117.92C105.529 117.92 106.321 118.128 106.897 118.544C107.473 118.944 107.881 119.488 108.121 120.176C108.377 120.864 108.505 121.616 108.505 122.432V131H105.529V122.792C105.529 122.328 105.441 121.936 105.265 121.616C105.089 121.296 104.841 121.048 104.521 120.872C104.217 120.696 103.841 120.608 103.393 120.608C102.977 120.608 102.585 120.648 102.217 120.728C101.865 120.808 101.529 120.928 101.209 121.088C100.889 121.248 100.561 121.44 100.225 121.664V131H97.2492ZM121.957 131.144C120.949 131.144 120.101 130.928 119.413 130.496C118.725 130.048 118.205 129.352 117.853 128.408C117.517 127.448 117.349 126.208 117.349 124.688C117.349 123.088 117.501 121.8 117.805 120.824C118.109 119.832 118.613 119.112 119.317 118.664C120.037 118.2 120.997 117.968 122.197 117.968C122.837 117.968 123.469 118.032 124.093 118.16C124.717 118.288 125.261 118.44 125.725 118.616V112.688H128.701V131H126.229L125.725 129.752C125.469 129.992 125.125 130.216 124.693 130.424C124.277 130.632 123.829 130.808 123.349 130.952C122.885 131.08 122.421 131.144 121.957 131.144ZM122.965 128.744C123.541 128.744 124.061 128.656 124.525 128.48C124.989 128.288 125.389 128.096 125.725 127.904V120.752C125.325 120.608 124.917 120.48 124.501 120.368C124.085 120.256 123.629 120.2 123.133 120.2C122.461 120.2 121.917 120.328 121.501 120.584C121.085 120.824 120.781 121.256 120.589 121.88C120.413 122.504 120.325 123.392 120.325 124.544C120.325 125.616 120.413 126.464 120.589 127.088C120.765 127.696 121.045 128.128 121.429 128.384C121.829 128.624 122.341 128.744 122.965 128.744ZM136.935 131.12C135.543 131.12 134.431 130.928 133.599 130.544C132.783 130.16 132.191 129.496 131.823 128.552C131.455 127.592 131.271 126.264 131.271 124.568C131.271 122.84 131.447 121.504 131.799 120.56C132.151 119.6 132.735 118.928 133.551 118.544C134.367 118.16 135.471 117.968 136.863 117.968C138.095 117.968 139.079 118.096 139.815 118.352C140.567 118.592 141.111 119.032 141.447 119.672C141.799 120.296 141.975 121.184 141.975 122.336C141.975 123.152 141.815 123.808 141.495 124.304C141.175 124.784 140.711 125.128 140.103 125.336C139.511 125.544 138.807 125.648 137.991 125.648H134.223C134.255 126.448 134.359 127.088 134.535 127.568C134.727 128.032 135.063 128.368 135.543 128.576C136.039 128.784 136.759 128.888 137.703 128.888H141.591V130.64C140.935 130.768 140.239 130.88 139.503 130.976C138.783 131.072 137.927 131.12 136.935 131.12ZM134.199 123.848H137.703C138.263 123.848 138.671 123.744 138.927 123.536C139.199 123.312 139.335 122.912 139.335 122.336C139.335 121.776 139.255 121.336 139.095 121.016C138.935 120.696 138.671 120.472 138.303 120.344C137.935 120.2 137.455 120.128 136.863 120.128C136.191 120.128 135.663 120.232 135.279 120.44C134.895 120.648 134.615 121.024 134.439 121.568C134.279 122.096 134.199 122.856 134.199 123.848ZM151.042 131V113.288H153.994V131H151.042ZM157.155 131V118.136H159.579L160.131 119.48C160.659 119.08 161.299 118.72 162.051 118.4C162.819 118.08 163.611 117.92 164.427 117.92C165.435 117.92 166.227 118.128 166.803 118.544C167.379 118.944 167.787 119.488 168.027 120.176C168.283 120.864 168.411 121.616 168.411 122.432V131H165.435V122.792C165.435 122.328 165.347 121.936 165.171 121.616C164.995 121.296 164.747 121.048 164.427 120.872C164.123 120.696 163.747 120.608 163.299 120.608C162.883 120.608 162.491 120.648 162.123 120.728C161.771 120.808 161.435 120.928 161.115 121.088C160.795 121.248 160.467 121.44 160.131 121.664V131H157.155ZM176.062 131C175.134 131 174.374 130.864 173.782 130.592C173.19 130.304 172.758 129.832 172.486 129.176C172.23 128.52 172.11 127.656 172.126 126.584L172.222 120.536H170.206V118.616L172.318 118.136L172.75 114.536H175.078V118.136H178.342V120.536H175.078V126.56C175.078 126.976 175.118 127.32 175.198 127.592C175.278 127.848 175.39 128.056 175.534 128.216C175.694 128.36 175.862 128.464 176.038 128.528C176.214 128.592 176.398 128.632 176.59 128.648L178.198 128.816V131H176.062ZM185.779 131.12C184.387 131.12 183.275 130.928 182.443 130.544C181.627 130.16 181.035 129.496 180.667 128.552C180.299 127.592 180.115 126.264 180.115 124.568C180.115 122.84 180.291 121.504 180.643 120.56C180.995 119.6 181.579 118.928 182.395 118.544C183.211 118.16 184.315 117.968 185.707 117.968C186.939 117.968 187.923 118.096 188.659 118.352C189.411 118.592 189.955 119.032 190.291 119.672C190.643 120.296 190.819 121.184 190.819 122.336C190.819 123.152 190.659 123.808 190.339 124.304C190.019 124.784 189.555 125.128 188.947 125.336C188.355 125.544 187.651 125.648 186.835 125.648H183.067C183.099 126.448 183.203 127.088 183.379 127.568C183.571 128.032 183.907 128.368 184.387 128.576C184.883 128.784 185.603 128.888 186.547 128.888H190.435V130.64C189.779 130.768 189.083 130.88 188.347 130.976C187.627 131.072 186.771 131.12 185.779 131.12ZM183.043 123.848H186.547C187.107 123.848 187.515 123.744 187.771 123.536C188.043 123.312 188.179 122.912 188.179 122.336C188.179 121.776 188.099 121.336 187.939 121.016C187.779 120.696 187.515 120.472 187.147 120.344C186.779 120.2 186.299 120.128 185.707 120.128C185.035 120.128 184.507 120.232 184.123 120.44C183.739 120.648 183.459 121.024 183.283 121.568C183.123 122.096 183.043 122.856 183.043 123.848ZM193.46 131V118.136H195.764L196.436 120.2C196.948 119.576 197.516 119.048 198.14 118.616C198.764 118.184 199.508 117.968 200.372 117.968C200.548 117.968 200.732 117.984 200.924 118.016C201.116 118.032 201.292 118.064 201.452 118.112V121.136C201.228 121.104 200.988 121.08 200.732 121.064C200.476 121.048 200.228 121.04 199.988 121.04C199.492 121.04 199.036 121.096 198.62 121.208C198.22 121.32 197.844 121.496 197.492 121.736C197.14 121.96 196.788 122.248 196.436 122.6V131H193.46ZM203.899 116.096C203.595 116.096 203.443 115.952 203.443 115.664V113.48C203.443 113.16 203.595 113 203.899 113H206.155C206.299 113 206.403 113.048 206.467 113.144C206.547 113.24 206.587 113.352 206.587 113.48V115.664C206.587 115.952 206.443 116.096 206.155 116.096H203.899ZM203.515 131V118.136H206.491V131H203.515ZM214.914 131.12C213.906 131.12 213.034 131.016 212.298 130.808C211.562 130.6 210.962 130.248 210.498 129.752C210.034 129.256 209.69 128.584 209.466 127.736C209.242 126.888 209.13 125.824 209.13 124.544C209.13 123.216 209.242 122.128 209.466 121.28C209.69 120.416 210.034 119.744 210.498 119.264C210.978 118.768 211.586 118.432 212.322 118.256C213.058 118.064 213.922 117.968 214.914 117.968C215.938 117.968 216.818 118.072 217.554 118.28C218.29 118.472 218.89 118.808 219.354 119.288C219.818 119.768 220.162 120.44 220.386 121.304C220.61 122.152 220.722 123.232 220.722 124.544C220.722 125.84 220.61 126.92 220.386 127.784C220.178 128.632 219.842 129.304 219.378 129.8C218.914 130.28 218.314 130.624 217.578 130.832C216.842 131.024 215.954 131.12 214.914 131.12ZM214.914 128.744C215.41 128.744 215.834 128.704 216.186 128.624C216.538 128.528 216.826 128.344 217.05 128.072C217.29 127.784 217.466 127.36 217.578 126.8C217.69 126.224 217.746 125.464 217.746 124.52C217.746 123.592 217.69 122.848 217.578 122.288C217.466 121.728 217.29 121.312 217.05 121.04C216.826 120.752 216.538 120.568 216.186 120.488C215.834 120.392 215.41 120.344 214.914 120.344C214.434 120.344 214.018 120.392 213.666 120.488C213.314 120.568 213.026 120.752 212.802 121.04C212.578 121.312 212.402 121.728 212.274 122.288C212.162 122.848 212.106 123.592 212.106 124.52C212.106 125.464 212.162 126.224 212.274 126.8C212.402 127.36 212.578 127.784 212.802 128.072C213.026 128.344 213.314 128.528 213.666 128.624C214.018 128.704 214.434 128.744 214.914 128.744ZM223.366 131V118.136H225.67L226.342 120.2C226.854 119.576 227.422 119.048 228.046 118.616C228.67 118.184 229.414 117.968 230.278 117.968C230.454 117.968 230.638 117.984 230.83 118.016C231.022 118.032 231.198 118.064 231.358 118.112V121.136C231.134 121.104 230.894 121.08 230.638 121.064C230.382 121.048 230.134 121.04 229.894 121.04C229.398 121.04 228.942 121.096 228.526 121.208C228.126 121.32 227.75 121.496 227.398 121.736C227.046 121.96 226.694 122.248 226.342 122.6V131H223.366ZM238.677 131.12C237.285 131.12 236.173 130.928 235.341 130.544C234.525 130.16 233.933 129.496 233.565 128.552C233.197 127.592 233.013 126.264 233.013 124.568C233.013 122.84 233.189 121.504 233.541 120.56C233.893 119.6 234.477 118.928 235.293 118.544C236.109 118.16 237.213 117.968 238.605 117.968C239.837 117.968 240.821 118.096 241.557 118.352C242.309 118.592 242.853 119.032 243.189 119.672C243.541 120.296 243.717 121.184 243.717 122.336C243.717 123.152 243.557 123.808 243.237 124.304C242.917 124.784 242.453 125.128 241.845 125.336C241.253 125.544 240.549 125.648 239.733 125.648H235.965C235.997 126.448 236.101 127.088 236.277 127.568C236.469 128.032 236.805 128.368 237.285 128.576C237.781 128.784 238.501 128.888 239.445 128.888H243.333V130.64C242.677 130.768 241.981 130.88 241.245 130.976C240.525 131.072 239.669 131.12 238.677 131.12ZM235.941 123.848H239.445C240.005 123.848 240.413 123.744 240.669 123.536C240.941 123.312 241.077 122.912 241.077 122.336C241.077 121.776 240.997 121.336 240.837 121.016C240.677 120.696 240.413 120.472 240.045 120.344C239.677 120.2 239.197 120.128 238.605 120.128C237.933 120.128 237.405 120.232 237.021 120.44C236.637 120.648 236.357 121.024 236.181 121.568C236.021 122.096 235.941 122.856 235.941 123.848ZM250.967 131.144C250.599 131.144 250.175 131.128 249.695 131.096C249.231 131.08 248.759 131.048 248.279 131C247.815 130.968 247.383 130.92 246.983 130.856C246.583 130.792 246.255 130.72 245.999 130.64V128.888H251.543C251.943 128.888 252.279 128.856 252.551 128.792C252.839 128.728 253.055 128.6 253.199 128.408C253.343 128.216 253.415 127.928 253.415 127.544V127.088C253.415 126.688 253.279 126.376 253.007 126.152C252.751 125.912 252.295 125.792 251.639 125.792H249.695C248.943 125.792 248.271 125.688 247.679 125.48C247.103 125.272 246.647 124.92 246.311 124.424C245.975 123.928 245.807 123.256 245.807 122.408V121.688C245.807 120.872 245.959 120.2 246.263 119.672C246.583 119.128 247.103 118.72 247.823 118.448C248.559 118.16 249.535 118.016 250.751 118.016C251.263 118.016 251.815 118.04 252.407 118.088C252.999 118.136 253.567 118.2 254.111 118.28C254.655 118.344 255.087 118.424 255.407 118.52V120.272H250.175C249.583 120.272 249.127 120.376 248.807 120.584C248.503 120.776 248.351 121.144 248.351 121.688V122.144C248.351 122.496 248.423 122.76 248.567 122.936C248.711 123.112 248.927 123.232 249.215 123.296C249.503 123.36 249.847 123.392 250.247 123.392H252.239C253.503 123.392 254.439 123.68 255.047 124.256C255.655 124.832 255.959 125.648 255.959 126.704V127.76C255.959 128.624 255.759 129.304 255.359 129.8C254.959 130.296 254.383 130.648 253.631 130.856C252.895 131.048 252.007 131.144 250.967 131.144Z" fill="white"/>
<line x1="5" y1="5" x2="5" y2="40" stroke="url(#paint0_linear_50_3)" stroke-width="10" stroke-linecap="round"/>
<defs>
<linearGradient id="paint0_linear_50_3" x1="4.99997" y1="0" x2="4.99997" y2="45" gradientUnits="userSpaceOnUse">
<stop stop-color="#E75918"/>
<stop offset="1" stop-color="#EB920C"/>
</linearGradient>
</defs>
</svg>
