<svg width="50" height="50" viewBox="0 0 50 50" fill="none" xmlns="http://www.w3.org/2000/svg">
<path d="M9.11457 36.3541C8.35068 36.3541 7.68228 36.0763 7.10936 35.5208C6.53645 34.9652 6.24999 34.2881 6.24999 33.4895V12.1874C6.24999 11.3888 6.53645 10.703 7.10936 10.1301C7.68228 9.55721 8.35068 9.27075 9.11457 9.27075H40.8854C41.6493 9.27075 42.3177 9.55721 42.8906 10.1301C43.4635 10.703 43.75 11.3888 43.75 12.1874V33.4895C43.75 34.2881 43.4635 34.9652 42.8906 35.5208C42.3177 36.0763 41.6493 36.3541 40.8854 36.3541H9.11457ZM9.11457 34.7916H40.8854C41.2326 34.7916 41.5278 34.6701 41.7708 34.427C42.0139 34.1839 42.1354 33.8714 42.1354 33.4895V12.1874C42.1354 11.8055 42.0139 11.493 41.7708 11.2499C41.5278 11.0069 41.2326 10.8853 40.8854 10.8853H9.11457C8.76735 10.8853 8.47221 11.0069 8.22916 11.2499C7.9861 11.493 7.86457 11.8055 7.86457 12.1874V33.4895C7.86457 33.8714 7.9861 34.1839 8.22916 34.427C8.47221 34.6701 8.76735 34.7916 9.11457 34.7916ZM4.47916 40.5208C4.27082 40.5208 4.08853 40.4513 3.93228 40.3124C3.77603 40.1735 3.69791 39.9826 3.69791 39.7395C3.69791 39.4964 3.77603 39.3055 3.93228 39.1666C4.08853 39.0277 4.27082 38.9583 4.47916 38.9583H45.5208C45.7292 38.9583 45.9114 39.0364 46.0677 39.1926C46.2239 39.3489 46.3021 39.5312 46.3021 39.7395C46.3021 39.9826 46.2239 40.1735 46.0677 40.3124C45.9114 40.4513 45.7292 40.5208 45.5208 40.5208H4.47916ZM7.86457 34.7916V10.8853V34.7916Z" fill="#E65618"/>
</svg>
