<svg width="293" height="40" viewBox="0 0 293 40" fill="none" xmlns="http://www.w3.org/2000/svg">
<path d="M4.52001 39.016C4.34667 38.9467 4.22534 38.8427 4.15601 38.704C4.08667 38.5653 4.01734 38.288 3.948 37.872C3.948 37.4907 3.844 37.2133 3.636 37.04C3.42801 36.8667 3.02934 36.7107 2.44 36.572C2.05867 36.1907 1.78134 35.7573 1.608 35.272C1.43467 34.7867 1.296 33.9893 1.192 32.88C1.12267 31.7707 1.01867 30.1067 0.880005 27.888C0.949338 26.6747 1.00134 25.652 1.036 24.82C1.10534 23.988 1.17467 23.208 1.244 22.48C1.31334 21.752 1.38267 20.972 1.452 20.14C1.556 19.308 1.69467 18.268 1.868 17.02C1.79867 16.2227 1.83334 15.356 1.972 14.42C2.14534 13.484 2.18 12.7387 2.076 12.184C2.31867 11.4213 2.47467 10.5547 2.54401 9.584C2.61334 8.57866 2.76934 7.69466 3.012 6.932C3.08134 6.34266 3.15067 5.788 3.22001 5.268C3.324 4.748 3.376 4.31466 3.376 3.968C3.30667 3.27466 3.34134 2.63333 3.48 2.044C3.61867 1.45466 3.89601 1.07333 4.312 0.899998C4.52001 0.830663 4.81467 0.778663 5.196 0.743997C5.57734 0.70933 5.85467 0.761331 6.028 0.899998C6.30534 1.03866 6.496 1.264 6.6 1.576C6.704 1.888 6.73867 2.23466 6.70401 2.616C6.77334 2.99733 6.77334 3.656 6.70401 4.592C6.66934 5.528 6.58267 6.568 6.44401 7.712C6.30534 8.82133 6.11467 9.91333 5.872 10.988C5.59467 12.4093 5.36934 13.8653 5.196 15.356C5.05734 16.812 4.95334 18.2507 4.88401 19.672C4.74534 22.5147 4.60667 24.872 4.468 26.744C4.32934 28.616 4.31201 29.968 4.41601 30.8C4.41601 30.904 4.45067 31.1813 4.52001 31.632C4.58934 32.0827 4.67601 32.516 4.78 32.932C4.884 33.3133 4.98801 33.504 5.09201 33.504C5.36934 33.4693 5.62934 33.2267 5.872 32.776C6.14934 32.3253 6.392 31.8053 6.6 31.216C6.84267 30.592 7.068 30.0547 7.27601 29.604C7.72667 28.7373 8.17734 27.8013 8.62801 26.796C9.11334 25.756 9.52934 24.768 9.876 23.832C10.5 22.376 11.124 21.128 11.748 20.088C12.372 19.048 12.9613 17.8867 13.516 16.604C13.724 16.0493 14.088 15.252 14.608 14.212C15.1627 13.1373 15.6827 12.1493 16.168 11.248C16.7573 10.3467 17.312 9.48 17.832 8.648C18.3867 7.816 19.028 6.70666 19.756 5.32C20.7613 3.656 21.5413 2.512 22.096 1.888C22.6507 1.264 23.2053 0.951997 23.76 0.951997C24.1413 0.882662 24.3667 0.882662 24.436 0.951997C24.54 0.986663 24.7133 1.17733 24.956 1.524C25.2333 1.90533 25.372 2.304 25.372 2.72C25.4067 3.10133 25.2333 3.63866 24.852 4.332C24.5053 5.02533 23.8813 6.01333 22.98 7.296C22.2867 8.336 21.5067 9.54933 20.64 10.936C19.808 12.3227 19.028 13.64 18.3 14.888C17.6067 16.1013 17.104 17.0027 16.792 17.592C16.6187 17.9733 16.4627 18.372 16.324 18.788C16.1853 19.204 15.9773 19.5853 15.7 19.932C15.3533 20.2787 14.8853 21.024 14.296 22.168C13.7067 23.312 13.1347 24.4387 12.58 25.548C11.956 27.004 11.4533 28.148 11.072 28.98C10.7253 29.7773 10.4307 30.436 10.188 30.956C9.98001 31.476 9.77201 31.9787 9.56401 32.464C9.35601 32.9493 9.096 33.556 8.784 34.284C8.61067 34.8733 8.368 35.48 8.056 36.104C7.77867 36.7627 7.62267 37.196 7.588 37.404C7.34534 37.7853 7.016 38.1147 6.6 38.392C6.21867 38.704 5.83734 38.912 5.45601 39.016C5.07467 39.12 4.76267 39.12 4.52001 39.016Z" fill="#151515"/>
<path d="M22.2642 34.336C21.9869 34.0587 21.7789 33.712 21.6402 33.296C21.5362 32.88 21.5015 32.464 21.5362 32.048C21.5709 31.632 21.6575 31.2853 21.7962 31.008C21.7962 30.7307 21.8309 30.5227 21.9002 30.384C22.0042 30.2107 22.0389 30.0547 22.0042 29.916C21.9695 29.7773 22.0042 29.5347 22.1082 29.188C22.2122 28.8413 22.3162 28.512 22.4202 28.2C22.6629 27.6453 22.9229 26.9867 23.2002 26.224C23.4775 25.4267 23.7375 24.6467 23.9802 23.884C24.2229 23.1213 24.4309 22.4627 24.6042 21.908C24.7775 21.3533 24.8815 21.0067 24.9162 20.868C24.9162 20.452 25.1935 20.2267 25.7482 20.192C26.1642 20.0533 26.4762 20.0533 26.6842 20.192C26.8922 20.296 27.1695 20.6253 27.5162 21.18C27.7935 21.4573 27.8975 21.8733 27.8282 22.428C27.7589 22.9827 27.5335 23.676 27.1522 24.508C27.0135 24.7853 26.8402 25.184 26.6322 25.704C26.4589 26.224 26.3375 26.692 26.2682 27.108C26.1295 27.3853 25.9562 27.784 25.7482 28.304C25.5749 28.7893 25.4189 29.2573 25.2802 29.708C25.2109 29.8813 25.1415 30.1413 25.0722 30.488C25.0029 30.8 24.9162 31.1467 24.8122 31.528C24.7082 31.8747 24.5695 32.1867 24.3962 32.464C24.0842 33.8853 23.7895 34.7173 23.5122 34.96C23.2695 35.2027 22.8535 34.9947 22.2642 34.336ZM27.3082 13.224C27.1349 13.0507 26.9789 12.808 26.8402 12.496C26.7015 12.1493 26.6149 11.8373 26.5802 11.56C26.5455 11.248 26.5802 11.092 26.6842 11.092C26.9615 11.0573 27.2909 10.7627 27.6722 10.208C28.0535 9.65333 28.2095 9.168 28.1402 8.752C28.1402 8.61333 28.1922 8.492 28.2962 8.388C28.4002 8.24933 28.5215 8.16266 28.6602 8.128C29.0762 7.85066 29.4749 7.816 29.8562 8.024C30.2722 8.19733 30.6535 8.56133 31.0002 9.116C31.3122 9.77466 31.3989 10.3293 31.2602 10.78C31.1215 11.196 30.7402 11.7853 30.1162 12.548C29.5962 13.2413 29.1109 13.6227 28.6602 13.692C28.2442 13.7613 27.7935 13.6053 27.3082 13.224Z" fill="#151515"/>
<path d="M49.7994 33.608C49.1061 33.608 48.5341 33.4693 48.0834 33.192C47.6327 32.88 47.2514 32.3773 46.9394 31.684C46.8007 31.1987 46.6794 30.6613 46.5754 30.072C46.5061 29.448 46.4714 28.876 46.4714 28.356C46.4714 27.8013 46.5234 27.4373 46.6274 27.264C46.7661 27.1253 46.8181 26.8827 46.7834 26.536C46.7834 26.1547 46.7834 25.756 46.7834 25.34C46.7487 24.6467 46.5754 24.2653 46.2634 24.196C45.9861 24.092 45.5701 24.196 45.0154 24.508C44.3914 24.8893 43.5767 25.4093 42.5714 26.068C41.5661 26.692 40.5087 27.3853 39.3994 28.148C38.3247 28.9107 37.3021 29.708 36.3314 30.54C35.5687 31.372 35.1007 32.0133 34.9274 32.464C34.7887 32.88 34.5807 33.088 34.3034 33.088C34.0261 33.2267 33.7834 33.244 33.5754 33.14C33.4021 33.0013 33.1421 32.7933 32.7954 32.516C32.5527 32.2387 32.3101 31.9787 32.0674 31.736C31.8247 31.4587 31.6687 31.2507 31.5994 31.112C31.5994 30.9387 31.6514 30.5747 31.7554 30.02C31.8594 29.4653 31.9807 28.9107 32.1194 28.356C32.2927 27.8013 32.4141 27.4373 32.4834 27.264C32.6567 27.264 32.7954 27.0907 32.8994 26.744C33.0381 26.3973 33.2461 26.016 33.5234 25.6C33.5927 25.184 33.7661 24.6293 34.0434 23.936C34.3554 23.208 34.6327 22.5667 34.8754 22.012C35.3607 21.18 35.6901 20.4867 35.8634 19.932C36.0714 19.3773 36.2101 18.684 36.2794 17.852C36.2447 17.7133 36.2794 17.592 36.3834 17.488C36.4874 17.3493 36.6087 17.28 36.7474 17.28C37.0247 17.0027 37.3541 16.9333 37.7354 17.072C38.1167 17.176 38.4634 17.436 38.7754 17.852C39.3994 18.684 39.6421 19.5507 39.5034 20.452C39.3994 21.3187 38.8447 22.5667 37.8394 24.196C37.5967 24.7507 37.4061 25.184 37.2674 25.496C37.1634 25.7733 37.1114 25.9987 37.1114 26.172C37.1114 26.172 37.2847 26.0507 37.6314 25.808C38.0127 25.5653 38.4287 25.288 38.8794 24.976C39.3647 24.6293 39.7461 24.3693 40.0234 24.196C40.1967 24.0227 40.5954 23.7107 41.2194 23.26C41.8434 22.8093 42.5021 22.376 43.1954 21.96C43.9234 21.5093 44.4607 21.2493 44.8074 21.18C45.0847 21.0413 45.3794 20.92 45.6914 20.816C46.0034 20.6773 46.2287 20.608 46.3674 20.608C46.6447 20.608 46.9914 20.764 47.4074 21.076C47.8581 21.3533 48.2741 21.7 48.6554 22.116C49.0367 22.4973 49.2621 22.8267 49.3314 23.104C49.3314 23.2427 49.3314 23.3813 49.3314 23.52C49.3661 23.6587 49.4007 23.7973 49.4354 23.936C49.5741 24.3867 49.6434 24.9933 49.6434 25.756C49.6781 26.5187 49.6607 27.212 49.5914 27.836C49.5221 28.46 49.4007 28.824 49.2274 28.928C49.2274 28.928 49.2274 28.98 49.2274 29.084C49.2621 29.1533 49.3487 29.188 49.4874 29.188C49.4874 29.3267 49.4874 29.4133 49.4874 29.448C49.3141 29.448 49.2447 29.604 49.2794 29.916C49.3141 30.1933 49.4181 30.5053 49.5914 30.852C49.7994 31.1987 50.0074 31.476 50.2154 31.684C50.6314 32.1 50.8047 32.4987 50.7354 32.88C50.6661 33.2267 50.3541 33.4693 49.7994 33.608Z" fill="#151515"/>
<path d="M57.4016 34.388C56.8816 34.3187 56.4309 33.9547 56.0496 33.296C55.7029 32.6027 55.4949 31.9787 55.4256 31.424C55.4602 31.1467 55.4949 30.748 55.5296 30.228C55.5989 29.708 55.6682 29.1707 55.7376 28.616C55.8762 27.9573 56.0669 27.16 56.3096 26.224C56.5522 25.2533 56.7949 24.2827 57.0376 23.312C57.3149 22.3413 57.5576 21.5093 57.7656 20.816C57.9736 20.1227 58.1122 19.7067 58.1816 19.568C58.3549 19.2907 58.6322 19.2213 59.0136 19.36C59.3949 19.4987 59.7069 19.7067 59.9496 19.984C60.1576 20.2613 60.2789 20.5907 60.3136 20.972C60.3829 21.3533 60.3309 21.908 60.1576 22.636C60.0189 23.364 59.7416 24.4387 59.3256 25.86C58.9442 27.2467 58.6496 28.3733 58.4416 29.24C58.2682 30.072 58.1989 30.956 58.2336 31.892C58.0949 33.0707 57.9909 33.7987 57.9216 34.076C57.8522 34.3187 57.6789 34.4227 57.4016 34.388ZM63.3816 13.64C63.2429 13.744 63.1042 13.796 62.9656 13.796C62.8616 13.7613 62.6709 13.6573 62.3936 13.484C62.1509 13.4493 61.8389 13.2933 61.4576 13.016C61.1109 12.704 60.7989 12.392 60.5216 12.08C60.2789 11.7333 60.1576 11.5253 60.1576 11.456C60.1229 11.1093 60.1402 10.676 60.2096 10.156C60.3136 9.60133 60.5042 9.116 60.7816 8.7C61.0589 8.24933 61.4576 8.00666 61.9776 7.972C62.1162 7.972 62.2376 7.98933 62.3416 8.024C62.4456 8.05866 62.7576 8.18 63.2776 8.388C63.5549 8.908 63.8322 9.49733 64.1096 10.156C64.3869 10.78 64.5082 11.404 64.4736 12.028C64.4389 12.6173 64.0749 13.1547 63.3816 13.64Z" fill="#151515"/>
<path d="M69.9608 34.804C69.1981 34.804 68.6261 34.7693 68.2448 34.7C67.8635 34.6307 67.5688 34.5267 67.3608 34.388C67.1528 34.2493 66.9101 34.0587 66.6328 33.816C66.4941 33.5387 66.3208 33.244 66.1128 32.932C65.9048 32.62 65.7315 32.3947 65.5928 32.256C65.4541 31.736 65.3848 31.06 65.3848 30.228C65.4195 29.396 65.5235 28.4947 65.6968 27.524C65.9048 26.5533 66.1821 25.652 66.5288 24.82C66.6675 24.5427 66.7888 24.2653 66.8928 23.988C66.9968 23.7107 67.0488 23.572 67.0488 23.572C67.0488 23.3987 67.2568 22.9827 67.6728 22.324C68.1234 21.6653 68.6088 20.972 69.1288 20.244C69.6835 19.516 70.1341 18.996 70.4808 18.684C70.7235 18.4067 71.0875 18.112 71.5728 17.8C72.0928 17.488 72.5435 17.2627 72.9248 17.124C73.3061 16.9853 73.6875 16.864 74.0688 16.76C74.4848 16.656 74.9528 16.604 75.4728 16.604C75.9581 16.604 76.4088 16.708 76.8248 16.916C77.2408 17.124 77.6394 17.488 78.0208 18.008C78.6448 18.632 78.9914 19.256 79.0608 19.88C79.1648 20.4693 79.1475 21.076 79.0088 21.7C78.8355 22.3933 78.6101 22.9307 78.3328 23.312C78.0555 23.6587 77.7435 23.8147 77.3968 23.78C77.0501 23.7453 76.6514 23.4853 76.2008 23C76.0621 22.7227 75.9928 22.4973 75.9928 22.324C75.9928 22.116 76.0621 21.8213 76.2008 21.44C76.3394 20.9547 76.3394 20.452 76.2008 19.932C76.0621 19.412 75.8368 19.152 75.5248 19.152C75.0741 19.152 74.5715 19.36 74.0168 19.776C73.4968 20.1573 72.9595 20.6427 72.4048 21.232C72.1621 21.5093 71.8155 21.9427 71.3648 22.532C70.9488 23.0867 70.5328 23.7107 70.1168 24.404C69.7008 25.0627 69.3541 25.704 69.0768 26.328C68.6954 27.472 68.3835 28.3907 68.1408 29.084C67.9328 29.7773 67.8288 30.124 67.8288 30.124C67.8288 30.2627 67.8635 30.4013 67.9328 30.54C68.0368 30.644 68.0888 30.7653 68.0888 30.904C68.0888 31.32 68.3315 31.6493 68.8168 31.892C69.1981 32.1347 69.6488 32.2733 70.1688 32.308C70.6888 32.308 71.3301 32.1347 72.0928 31.788C72.6475 31.5107 73.1675 31.1467 73.6528 30.696C74.1728 30.2453 74.7101 29.8467 75.2648 29.5C75.6461 29.2573 75.9408 29.0493 76.1488 28.876C76.3915 28.7027 76.5128 28.6853 76.5128 28.824C76.5128 28.9627 76.5648 29.032 76.6688 29.032C76.7728 29.032 76.8941 28.9627 77.0328 28.824C77.2408 28.5467 77.4661 28.3733 77.7088 28.304C77.9515 28.2 78.1595 28.1653 78.3328 28.2C78.5408 28.2 78.6448 28.252 78.6448 28.356C78.5754 28.668 78.6448 28.928 78.8528 29.136C78.8528 29.2747 78.8008 29.4653 78.6968 29.708C78.6275 29.916 78.5235 30.0893 78.3848 30.228C78.2115 30.4707 77.9515 30.748 77.6048 31.06C77.2928 31.372 76.9981 31.6493 76.7208 31.892C76.4435 32.1 76.3048 32.204 76.3048 32.204C76.1661 32.1693 76.0275 32.204 75.8888 32.308C75.7848 32.412 75.6635 32.5333 75.5248 32.672C75.2475 32.9147 74.9875 33.1053 74.7448 33.244C74.5021 33.348 74.3114 33.4 74.1728 33.4C73.9301 33.5387 73.7395 33.6253 73.6008 33.66C73.4968 33.6947 73.4448 33.7813 73.4448 33.92C73.0981 34.2667 72.6648 34.5093 72.1448 34.648C71.6594 34.752 70.9315 34.804 69.9608 34.804Z" fill="#151515"/>
<path d="M83.7193 33.452C83.5806 33.452 83.4073 33.4173 83.1993 33.348C83.0259 33.244 82.9393 33.192 82.9393 33.192C82.9393 33.0533 82.8873 32.88 82.7833 32.672C82.7139 32.464 82.6793 32.2907 82.6793 32.152C82.4366 32.0133 82.2979 31.8747 82.2633 31.736C82.2286 31.5627 82.2806 31.2853 82.4193 30.904C82.6273 30.5573 82.9046 30.0027 83.2513 29.24C83.5979 28.4427 83.9619 27.5933 84.3433 26.692C84.7246 25.756 85.0886 24.8373 85.4353 23.936C85.7819 23.0347 86.0766 22.272 86.3193 21.648C86.5619 20.9893 86.7006 20.5907 86.7353 20.452C86.7353 20.3133 86.7873 20.14 86.8913 19.932C86.9953 19.724 87.1166 19.5507 87.2553 19.412C87.5326 19.1693 87.8273 19.152 88.1393 19.36C88.4513 19.5333 88.7113 19.8453 88.9193 20.296C89.1619 20.712 89.2833 21.18 89.2833 21.7C89.2833 21.9427 89.1099 22.5667 88.7633 23.572C88.4166 24.5427 87.9486 25.704 87.3593 27.056C86.8046 28.408 86.1806 29.7773 85.4873 31.164C84.9673 32.1693 84.6379 32.8107 84.4993 33.088C84.3606 33.3307 84.1006 33.452 83.7193 33.452ZM91.3633 13.744C90.9473 13.744 90.4966 13.588 90.0113 13.276C89.5606 12.9293 89.1619 12.5133 88.8153 12.028C88.5033 11.508 88.3473 10.988 88.3473 10.468C88.3473 10.2947 88.4513 10.052 88.6593 9.74C88.8673 9.428 89.0753 9.116 89.2833 8.804C89.4913 8.492 89.5953 8.30133 89.5953 8.232C89.8726 8.232 90.0806 8.24933 90.2193 8.284C90.3926 8.284 90.6006 8.35333 90.8433 8.492C91.2246 9.35866 91.6926 10.0693 92.2473 10.624C92.8366 11.1787 93.1313 11.6467 93.1313 12.028C93.1313 12.7907 93.0619 13.276 92.9233 13.484C92.7846 13.6573 92.2646 13.744 91.3633 13.744Z" fill="#151515"/>
<path d="M104.858 35.896C104.512 35.5493 104.165 35.0813 103.818 34.492C103.472 33.868 103.194 33.1573 102.986 32.36C102.917 32.0827 102.882 31.7013 102.882 31.216C102.917 30.7307 102.917 30.384 102.882 30.176C102.778 30.4187 102.605 30.6787 102.362 30.956C102.154 31.1987 101.946 31.4067 101.738 31.58C101.6 31.7187 101.288 31.996 100.802 32.412C100.317 32.7933 99.8318 33.1053 99.3465 33.348C98.2025 34.076 97.2491 34.4747 96.4865 34.544C95.7585 34.6133 95.0651 34.232 94.4065 33.4C93.8518 32.9493 93.4531 32.4467 93.2105 31.892C93.0025 31.3373 93.0025 30.5747 93.2105 29.604C93.2798 28.3907 93.4531 27.212 93.7305 26.068C94.0078 24.8893 94.5798 23.3293 95.4465 21.388C96.1745 19.9667 96.7291 18.9267 97.1105 18.268C97.4918 17.5747 97.7345 17.1587 97.8385 17.02C98.3585 16.8467 98.7918 16.864 99.1385 17.072C99.4851 17.2453 99.6931 17.5747 99.7625 18.06C99.9705 18.4067 99.9358 18.996 99.6585 19.828C99.4158 20.66 98.9825 21.6827 98.3585 22.896C97.8731 24.0747 97.4225 25.2533 97.0065 26.432C96.6251 27.6107 96.3998 28.616 96.3305 29.448C96.2611 30.28 96.4691 30.7827 96.9545 30.956C97.2665 31.1293 97.8038 31.0773 98.5665 30.8C99.3638 30.5227 100.248 29.8293 101.218 28.72C102.224 27.6107 103.194 25.9293 104.13 23.676C104.408 22.9827 104.616 22.376 104.754 21.856C104.893 21.3013 104.98 20.6947 105.014 20.036C104.945 19.62 104.962 19.256 105.066 18.944C105.205 18.5973 105.482 18.3027 105.898 18.06C106.037 17.8867 106.228 17.7307 106.47 17.592C106.713 17.4187 106.869 17.4187 106.938 17.592L107.77 17.54C107.909 17.5053 107.996 17.592 108.03 17.8C108.1 17.9733 108.221 18.1293 108.394 18.268C108.776 18.58 108.88 19.256 108.706 20.296C108.533 21.336 108.048 22.792 107.25 24.664C106.592 26.0853 106.141 27.16 105.898 27.888C105.69 28.616 105.569 29.3267 105.534 30.02C105.534 30.644 105.656 31.2333 105.898 31.788C106.141 32.3427 106.522 32.8453 107.042 33.296C107.424 33.5387 107.632 33.816 107.666 34.128C107.736 34.44 107.753 34.804 107.718 35.22C107.649 35.532 107.441 35.792 107.094 36C106.782 36.1733 106.418 36.26 106.002 36.26C105.586 36.26 105.205 36.1387 104.858 35.896Z" fill="#151515"/>
<path d="M116.461 35.272C114.727 35.272 113.462 34.648 112.665 33.4C112.422 33.0533 112.301 32.7067 112.301 32.36C112.335 31.9787 112.439 31.7187 112.613 31.58C112.821 31.4413 113.063 31.5627 113.341 31.944C113.826 32.2213 114.519 32.36 115.421 32.36C115.871 32.36 116.339 32.3253 116.825 32.256C117.31 32.152 117.795 32.0133 118.281 31.84C118.801 31.5973 119.147 31.3893 119.321 31.216C119.494 31.008 119.459 30.8347 119.217 30.696H119.269C118.367 30.4533 117.449 30.072 116.513 29.552C115.611 28.9973 114.831 28.408 114.173 27.784C113.514 27.1253 113.133 26.536 113.029 26.016C112.751 24.9413 112.821 23.8493 113.237 22.74C113.653 21.596 114.242 20.5907 115.005 19.724C115.282 19.5507 115.629 19.3427 116.045 19.1C116.461 18.8227 116.79 18.6667 117.033 18.632V18.684C117.691 17.9907 118.489 17.436 119.425 17.02C120.395 16.604 121.418 16.2227 122.493 15.876L123.273 15.772C123.689 15.7027 124.035 15.668 124.313 15.668C124.278 15.668 124.347 15.7027 124.521 15.772C124.694 15.8067 124.85 15.8413 124.989 15.876C125.197 15.98 125.37 16.032 125.509 16.032C125.959 16.1013 126.375 16.3093 126.757 16.656C127.138 17.0027 127.433 17.4187 127.641 17.904C127.883 18.3547 127.97 18.788 127.901 19.204C127.831 19.8627 127.623 20.452 127.277 20.972C126.965 21.492 126.583 21.7867 126.133 21.856C126.202 21.8213 126.15 21.7693 125.977 21.7C125.838 21.596 125.682 21.492 125.509 21.388L125.353 21.492C125.353 21.492 125.335 21.4573 125.301 21.388C125.301 21.284 125.266 21.1627 125.197 21.024C125.093 20.816 125.041 20.5907 125.041 20.348C125.041 20.0707 125.058 19.776 125.093 19.464C125.162 19.0827 125.162 18.8573 125.093 18.788C125.058 18.7187 124.833 18.6667 124.417 18.632C123.931 18.528 123.221 18.6147 122.285 18.892C121.383 19.1693 120.621 19.5507 119.997 20.036C119.234 20.5213 118.593 20.9893 118.073 21.44C117.553 21.856 117.137 22.272 116.825 22.688C116.513 23.0693 116.235 23.52 115.993 24.04C115.819 24.2827 115.663 24.5253 115.525 24.768C115.421 24.976 115.369 25.1667 115.369 25.34C115.369 25.7213 115.646 26.12 116.201 26.536C116.79 26.9173 117.657 27.368 118.801 27.888C119.702 28.2693 120.465 28.6853 121.089 29.136C121.713 29.5867 122.146 30.1067 122.389 30.696C122.458 30.8347 122.475 31.008 122.441 31.216C122.441 31.3893 122.406 31.5107 122.337 31.58C122.406 31.6493 122.441 31.7013 122.441 31.736V31.684C122.718 32.1 122.718 32.5333 122.441 32.984C122.198 33.4347 121.765 33.8333 121.141 34.18C120.551 34.492 119.823 34.7347 118.957 34.908H119.009C118.558 35.0467 118.107 35.1507 117.657 35.22C117.241 35.2547 116.842 35.272 116.461 35.272Z" fill="#151515"/>
<path d="M171.165 38.496C171.13 38.704 170.922 38.756 170.541 38.652C170.194 38.5827 169.882 38.34 169.605 37.924C169.328 37.2653 169.189 36.6587 169.189 36.104C169.189 35.5493 169.206 34.7173 169.241 33.608C169.449 32.3947 169.726 30.8173 170.073 28.876C170.454 26.9 170.888 24.6987 171.373 22.272C171.893 19.8107 172.448 17.2453 173.037 14.576C173.453 13.1893 173.782 11.924 174.025 10.78C174.302 9.60133 174.51 8.648 174.649 7.92C174.788 7.192 174.857 6.828 174.857 6.828C174.857 6.724 174.753 6.776 174.545 6.984C174.372 7.15733 174.198 7.36533 174.025 7.608C173.852 7.85066 173.782 8.04133 173.817 8.18C173.817 8.18 173.696 8.35333 173.453 8.7C173.21 9.04666 172.898 9.51466 172.517 10.104C172.17 10.4507 171.754 11.144 171.269 12.184C170.784 13.224 170.246 14.1947 169.657 15.096C169.102 16.136 168.513 17.2627 167.889 18.476C167.265 19.6547 166.71 20.6427 166.225 21.44C165.913 21.8907 165.601 22.4107 165.289 23C164.977 23.5893 164.786 23.9707 164.717 24.144C164.578 24.5253 164.336 24.9933 163.989 25.548C163.642 26.068 163.261 26.588 162.845 27.108C162.637 27.42 162.429 27.7493 162.221 28.096C162.013 28.408 161.84 28.6853 161.701 28.928C161.597 29.136 161.545 29.24 161.545 29.24C161.545 29.344 161.372 29.656 161.025 30.176C160.713 30.696 160.314 31.268 159.829 31.892C159.378 32.516 158.945 33.0533 158.529 33.504C157.316 34.7867 156.345 35.5493 155.617 35.792C154.889 36 154.074 35.688 153.173 34.856C152.722 34.3013 152.393 33.6773 152.185 32.984C151.977 32.256 151.89 31.372 151.925 30.332C151.96 29.2573 152.081 27.9227 152.289 26.328C152.532 25.1147 152.757 23.9013 152.965 22.688C153.173 21.44 153.364 20.2787 153.537 19.204C153.745 18.0947 153.918 17.1587 154.057 16.396C154.23 15.6333 154.369 15.1307 154.473 14.888C154.542 14.1947 154.525 13.8133 154.421 13.744C154.317 13.6747 154.109 13.8827 153.797 14.368C153.658 14.6107 153.294 15.2173 152.705 16.188C152.116 17.124 151.422 18.2853 150.625 19.672C149.862 21.0587 149.1 22.5667 148.337 24.196C146.916 26.8307 145.737 29.0147 144.801 30.748C143.9 32.4467 143.172 33.7987 142.617 34.804C142.097 35.8093 141.716 36.5547 141.473 37.04C141.23 37.5253 141.057 37.8547 140.953 38.028C140.849 38.2013 140.762 38.3227 140.693 38.392C140.381 38.392 140.052 38.2533 139.705 37.976C139.393 37.7333 139.064 37.4387 138.717 37.092C138.613 36.8493 138.561 36.6067 138.561 36.364C138.596 36.1213 138.717 35.7747 138.925 35.324C139.133 34.8387 139.445 34.1107 139.861 33.14C140.312 32.2387 140.728 31.4587 141.109 30.8C141.49 30.1067 141.785 29.6907 141.993 29.552C142.166 29.2747 142.322 28.9973 142.461 28.72C142.6 28.4427 142.686 28.1133 142.721 27.732C142.894 27.524 143.154 27.108 143.501 26.484C143.882 25.8253 144.264 25.1147 144.645 24.352C144.922 23.9013 145.269 23.312 145.685 22.584C146.136 21.856 146.604 21.0587 147.089 20.192C147.574 19.2907 148.008 18.4413 148.389 17.644C149.984 14.9053 151.336 12.6 152.445 10.728C153.554 8.82133 154.386 7.608 154.941 7.088C155.114 6.91466 155.288 6.672 155.461 6.36C155.669 6.048 155.773 5.77066 155.773 5.528C155.773 4.8 155.912 4.14133 156.189 3.552C156.501 2.928 156.813 2.65066 157.125 2.72C157.472 2.72 157.784 2.75466 158.061 2.824C158.338 2.89333 158.633 3.11866 158.945 3.5C159.222 3.916 159.465 4.332 159.673 4.748C159.881 5.164 159.864 5.996 159.621 7.244C159.621 7.72933 159.569 8.284 159.465 8.908C159.361 9.49733 159.257 10.052 159.153 10.572C159.084 11.0573 159.032 11.4387 158.997 11.716C158.546 13.068 158.13 14.5933 157.749 16.292C157.368 17.956 157.021 19.6547 156.709 21.388C156.397 23.0867 156.137 24.6813 155.929 26.172C155.721 27.628 155.582 28.8413 155.513 29.812C155.478 30.748 155.513 31.2853 155.617 31.424C155.86 31.5627 156.068 31.58 156.241 31.476C156.414 31.372 156.709 30.9213 157.125 30.124C157.368 29.708 157.697 29.2053 158.113 28.616C158.564 27.992 158.997 27.42 159.413 26.9C159.69 26.4147 160.124 25.6867 160.713 24.716C161.302 23.7453 162.048 22.4973 162.949 20.972C163.885 19.4467 164.994 17.592 166.277 15.408C167.594 13.1893 169.085 10.624 170.749 7.712C171.546 6.49866 172.292 5.32 172.985 4.176C173.713 2.99733 174.302 2.23466 174.753 1.888C175.238 1.43733 175.741 1.33333 176.261 1.576C176.781 1.784 177.232 2.23466 177.613 2.928C178.029 3.62133 178.254 4.488 178.289 5.528C178.324 6.01333 178.254 6.79333 178.081 7.868C177.942 8.94266 177.717 10.1733 177.405 11.56C177.093 12.912 176.694 14.316 176.209 15.772C176.105 16.3613 175.932 17.1067 175.689 18.008C175.481 18.8747 175.238 19.776 174.961 20.712C174.684 21.648 174.406 22.532 174.129 23.364C173.956 24.508 173.748 25.6347 173.505 26.744C173.297 27.8533 173.228 28.5987 173.297 28.98C172.985 29.5347 172.777 30.332 172.673 31.372C172.569 32.412 172.517 33.4867 172.517 34.596C172.378 35.948 172.274 36.9013 172.205 37.456C172.136 38.0107 172.014 38.2707 171.841 38.236C171.39 38.0973 171.165 38.184 171.165 38.496Z" fill="#151515"/>
<path d="M184.411 36.156C182.885 36.156 181.637 35.584 180.667 34.44C179.696 33.2613 179.228 31.8053 179.263 30.072C179.332 28.824 179.575 27.4893 179.991 26.068C180.441 24.612 181.031 23.2253 181.759 21.908C182.487 20.556 183.284 19.3773 184.151 18.372C185.017 17.3667 185.919 16.656 186.855 16.24C187.201 16.0667 187.565 15.928 187.947 15.824C188.363 15.72 188.779 15.668 189.195 15.668C189.576 15.668 189.975 15.7373 190.391 15.876C190.807 15.98 191.153 16.1013 191.431 16.24C192.02 16.4827 192.471 16.7773 192.783 17.124C193.095 17.4707 193.372 18.008 193.615 18.736C193.719 19.3947 193.771 19.8627 193.771 20.14C193.771 20.4173 193.684 20.8333 193.511 21.388C193.095 22.636 192.557 23.7107 191.899 24.612C191.24 25.5133 190.356 26.276 189.247 26.9C188.969 27.0733 188.64 27.212 188.259 27.316C187.912 27.3853 187.548 27.42 187.167 27.42C186.473 27.42 185.797 27.2987 185.139 27.056C184.515 26.7787 184.012 26.38 183.631 25.86L183.267 25.444L183.111 25.86C182.764 26.796 182.487 27.6627 182.279 28.46C182.105 29.2573 182.019 29.9853 182.019 30.644C182.019 31.06 182.053 31.4587 182.123 31.84C182.227 32.2213 182.365 32.5507 182.539 32.828C182.677 33.036 182.903 33.192 183.215 33.296C183.561 33.3653 183.925 33.4 184.307 33.4C184.549 33.4 184.792 33.4 185.035 33.4C185.312 33.3653 185.572 33.296 185.815 33.192C186.404 32.984 186.872 32.7587 187.219 32.516C187.6 32.2733 187.981 32.0133 188.363 31.736L188.571 31.632H188.519C188.935 31.424 189.299 31.216 189.611 31.008C189.957 30.8 190.131 30.696 190.131 30.696C190.269 30.696 190.408 30.6093 190.547 30.436C190.824 30.2973 191.171 30.3493 191.587 30.592C192.037 30.8347 192.263 31.1467 192.263 31.528C192.228 31.7013 192.072 31.9787 191.795 32.36C191.517 32.7067 191.205 33.036 190.859 33.348C190.547 33.66 190.287 33.8333 190.079 33.868C190.044 33.9027 189.923 33.972 189.715 34.076C189.507 34.1453 189.368 34.2147 189.299 34.284H189.351C189.039 34.7 188.727 34.908 188.415 34.908H187.999C187.86 35.1507 187.409 35.428 186.647 35.74C185.884 36.0173 185.139 36.156 184.411 36.156ZM186.751 24.716C187.375 24.716 187.912 24.5427 188.363 24.196C188.848 23.8147 189.264 23.3987 189.611 22.948C190.304 22.012 190.703 21.1107 190.807 20.244C190.945 19.3427 190.841 18.7187 190.495 18.372C190.287 18.268 190.096 18.216 189.923 18.216C189.784 18.1813 189.489 18.2333 189.039 18.372C188.727 18.4413 188.293 18.7013 187.739 19.152C187.184 19.6027 186.629 20.1053 186.075 20.66C185.555 21.2147 185.156 21.6827 184.879 22.064L184.203 23.156C184.48 23.052 184.74 23 184.983 23C185.26 22.9653 185.416 22.9827 185.451 23.052C185.451 23.364 185.503 23.6587 185.607 23.936C185.745 24.1787 185.901 24.3693 186.075 24.508C186.283 24.6467 186.508 24.716 186.751 24.716Z" fill="#151515"/>
<path d="M197.317 33.452C197.178 33.452 197.005 33.4173 196.797 33.348C196.624 33.244 196.537 33.192 196.537 33.192C196.537 33.0533 196.485 32.88 196.381 32.672C196.312 32.464 196.277 32.2907 196.277 32.152C196.034 32.0133 195.896 31.8747 195.861 31.736C195.826 31.5627 195.878 31.2853 196.017 30.904C196.225 30.5573 196.502 30.0027 196.849 29.24C197.196 28.4427 197.56 27.5933 197.941 26.692C198.322 25.756 198.686 24.8373 199.033 23.936C199.38 23.0347 199.674 22.272 199.917 21.648C200.16 20.9893 200.298 20.5907 200.333 20.452C200.333 20.3133 200.385 20.14 200.489 19.932C200.593 19.724 200.714 19.5507 200.853 19.412C201.13 19.1693 201.425 19.152 201.737 19.36C202.049 19.5333 202.309 19.8453 202.517 20.296C202.76 20.712 202.881 21.18 202.881 21.7C202.881 21.9427 202.708 22.5667 202.361 23.572C202.014 24.5427 201.546 25.704 200.957 27.056C200.402 28.408 199.778 29.7773 199.085 31.164C198.565 32.1693 198.236 32.8107 198.097 33.088C197.958 33.3307 197.698 33.452 197.317 33.452ZM204.961 13.744C204.545 13.744 204.094 13.588 203.609 13.276C203.158 12.9293 202.76 12.5133 202.413 12.028C202.101 11.508 201.945 10.988 201.945 10.468C201.945 10.2947 202.049 10.052 202.257 9.74C202.465 9.428 202.673 9.116 202.881 8.804C203.089 8.492 203.193 8.30133 203.193 8.232C203.47 8.232 203.678 8.24933 203.817 8.284C203.99 8.284 204.198 8.35333 204.441 8.492C204.822 9.35866 205.29 10.0693 205.845 10.624C206.434 11.1787 206.729 11.6467 206.729 12.028C206.729 12.7907 206.66 13.276 206.521 13.484C206.382 13.6573 205.862 13.744 204.961 13.744Z" fill="#151515"/>
<path d="M207.016 34.18C206.704 33.9373 206.479 33.6947 206.34 33.452C206.236 33.2093 206.236 32.7413 206.34 32.048C206.444 31.0773 206.583 30.228 206.756 29.5C206.929 28.7373 207.137 27.8707 207.38 26.9C207.449 26.484 207.64 25.7733 207.952 24.768C208.299 23.7627 208.715 22.6707 209.2 21.492C209.685 20.3133 210.171 19.204 210.656 18.164C211.141 17.0893 211.557 16.292 211.904 15.772C212.181 15.564 212.511 15.4773 212.892 15.512C213.308 15.5467 213.655 15.7027 213.932 15.98C214.313 16.292 214.365 16.8467 214.088 17.644C213.845 18.4067 213.325 19.62 212.528 21.284C212.112 22.22 211.8 22.9307 211.592 23.416C211.384 23.8667 211.297 24.144 211.332 24.248C211.367 24.3173 211.523 24.2653 211.8 24.092C212.008 23.7107 212.389 23.2773 212.944 22.792C213.499 22.272 214.088 21.7693 214.712 21.284C215.336 20.7987 215.925 20.3653 216.48 19.984C217.035 19.6027 217.416 19.36 217.624 19.256C217.901 19.0827 218.213 18.944 218.56 18.84C218.941 18.7013 219.201 18.5973 219.34 18.528C220.137 18.1467 220.952 18.008 221.784 18.112C222.616 18.216 223.136 18.528 223.344 19.048C223.379 19.3253 223.483 19.5333 223.656 19.672C223.864 19.8107 223.968 19.88 223.968 19.88C224.107 19.88 224.176 19.932 224.176 20.036C224.211 20.14 224.228 20.192 224.228 20.192C224.228 20.4347 224.037 20.5907 223.656 20.66C223.309 20.6947 222.859 20.7293 222.304 20.764C221.853 20.7987 221.455 20.8853 221.108 21.024C220.761 21.1627 220.345 21.336 219.86 21.544C218.543 22.3067 217.277 23.052 216.064 23.78C214.885 24.508 213.741 25.4787 212.632 26.692C212.389 26.9693 212.147 27.2987 211.904 27.68C211.661 28.0613 211.401 28.4773 211.124 28.928C210.951 29.1013 210.777 29.4827 210.604 30.072C210.431 30.6613 210.275 31.2333 210.136 31.788C210.032 32.308 209.98 32.62 209.98 32.724C209.98 32.724 209.928 32.8973 209.824 33.244C209.72 33.556 209.547 33.868 209.304 34.18C208.888 34.7347 208.541 35.012 208.264 35.012C207.987 35.012 207.571 34.7347 207.016 34.18Z" fill="#151515"/>
<path d="M233.918 34.18C233.19 34.804 232.341 35.168 231.37 35.272C230.434 35.376 229.516 35.2373 228.614 34.856C227.713 34.44 226.968 33.816 226.378 32.984C225.789 32.2213 225.408 31.3547 225.234 30.384C225.061 29.3787 225.044 28.0787 225.182 26.484C225.286 25.132 225.72 23.78 226.482 22.428C227.245 21.0413 228.164 19.8107 229.238 18.736C230.348 17.6613 231.44 16.916 232.514 16.5C233.034 16.1533 233.468 15.9973 233.814 16.032C234.196 16.032 234.768 16.0667 235.53 16.136C236.328 16.24 236.917 16.396 237.298 16.604C237.714 16.812 238.044 17.0893 238.286 17.436C238.806 17.956 239.153 18.476 239.326 18.996C239.5 19.4813 239.586 19.9667 239.586 20.452C239.448 21.2147 238.928 22.1507 238.026 23.26C237.16 24.3347 236.016 25.2187 234.594 25.912C233.832 26.1547 233 26.2587 232.098 26.224C231.197 26.1893 230.452 25.964 229.862 25.548C229.204 25.2707 228.77 25.3227 228.562 25.704C228.354 26.0507 228.164 26.9173 227.99 28.304C227.852 29.6213 227.956 30.592 228.302 31.216C228.649 31.8053 229.117 32.152 229.706 32.256C230.4 32.3947 230.937 32.4987 231.318 32.568C231.734 32.6027 232.237 32.4467 232.826 32.1C233.381 31.7533 233.728 31.5627 233.866 31.528C234.005 31.4587 234.109 31.3893 234.178 31.32C234.282 31.216 234.508 30.9907 234.854 30.644C235.097 30.4013 235.288 30.228 235.426 30.124C235.565 29.9853 235.721 29.916 235.894 29.916C236.068 29.916 236.224 30.0027 236.362 30.176C236.501 30.3147 236.64 30.4187 236.778 30.488C237.125 30.488 237.194 30.696 236.986 31.112C236.813 31.528 236.449 32.0307 235.894 32.62C235.34 33.1747 234.681 33.6947 233.918 34.18ZM233.866 23.156C234.248 22.9827 234.646 22.74 235.062 22.428C235.478 22.0813 235.825 21.7173 236.102 21.336C236.414 20.92 236.57 20.5733 236.57 20.296C236.57 19.8107 236.345 19.412 235.894 19.1C235.444 18.7533 234.768 18.7013 233.866 18.944C233.485 19.048 233.052 19.308 232.566 19.724C232.081 20.1053 231.613 20.5387 231.162 21.024C230.746 21.5093 230.4 21.9427 230.122 22.324C229.88 22.7053 229.793 22.9307 229.862 23C229.966 23.1733 230.261 23.312 230.746 23.416C231.232 23.4853 231.769 23.5027 232.358 23.468C232.982 23.4333 233.485 23.3293 233.866 23.156Z" fill="#151515"/>
<path d="M242.509 33.556C242.162 33.348 241.902 33.14 241.729 32.932C241.555 32.724 241.469 32.4293 241.469 32.048C241.469 31.528 241.538 30.9907 241.677 30.436C241.815 29.8467 241.954 29.2747 242.093 28.72C242.162 28.096 242.249 27.472 242.353 26.848C242.491 26.1893 242.734 25.5827 243.081 25.028C243.462 23.7107 243.861 22.4107 244.277 21.128C244.693 19.8107 245.057 18.4587 245.369 17.072C245.819 15.7893 246.218 14.6627 246.565 13.692C246.946 12.6867 247.414 11.4213 247.969 9.896C248.281 9.02933 248.541 8.11066 248.749 7.14C248.991 6.13466 249.355 5.23333 249.841 4.436C250.049 4.124 250.205 3.864 250.309 3.656C250.447 3.41333 250.586 3.188 250.725 2.98C250.759 2.84133 250.863 2.75466 251.037 2.72C251.245 2.68533 251.47 2.70266 251.713 2.772C251.955 2.84133 252.146 2.96266 252.285 3.136C252.389 3.10133 252.51 3.20533 252.649 3.448C252.822 3.656 252.978 3.89866 253.117 4.176C253.255 4.45333 253.307 4.696 253.273 4.904C253.273 5.04266 253.238 5.23333 253.169 5.476C253.134 5.71866 253.047 5.944 252.909 6.152C252.77 6.29066 252.631 6.49866 252.493 6.776C252.389 7.01866 252.215 7.36533 251.973 7.816C251.834 8.26666 251.713 8.73466 251.609 9.22C251.505 9.67066 251.366 10.0867 251.193 10.468C251.054 10.884 250.881 11.2827 250.673 11.664C250.499 12.0453 250.378 12.3573 250.309 12.6C250.066 13.3973 249.771 14.1773 249.425 14.94C249.113 15.7027 248.835 16.5173 248.593 17.384C248.35 18.216 248.107 19.0827 247.865 19.984C247.622 20.8507 247.275 21.6827 246.825 22.48C246.582 22.8613 246.409 23.3467 246.305 23.936C246.201 24.5253 246.097 25.1147 245.993 25.704C245.785 26.328 245.594 26.9173 245.421 27.472C245.282 27.992 245.213 28.3213 245.213 28.46C245.005 29.2227 244.849 29.9853 244.745 30.748C244.675 31.476 244.502 32.1173 244.225 32.672C244.19 33.0187 244.121 33.296 244.017 33.504C243.913 33.712 243.739 33.8333 243.497 33.868C243.254 33.868 242.925 33.764 242.509 33.556Z" fill="#151515"/>
<path d="M250.514 36.468C250.063 36.2947 249.734 36.0347 249.526 35.688C249.318 35.3067 249.196 34.7693 249.162 34.076C249.162 33.66 249.231 33.1053 249.37 32.412C249.508 31.7187 249.664 30.9213 249.838 30.02C249.838 29.9507 249.838 29.8813 249.838 29.812C249.872 29.708 249.89 29.6387 249.89 29.604C249.924 29.4653 249.959 29.2573 249.994 28.98C250.063 28.7027 250.115 28.4947 250.15 28.356C250.184 28.1827 250.202 28.1827 250.202 28.356L250.566 26.952C250.739 26.328 250.912 25.704 251.086 25.08C251.259 24.456 251.415 23.9187 251.554 23.468C251.692 22.9827 251.779 22.7053 251.814 22.636C251.814 22.636 251.883 22.4453 252.022 22.064C252.16 21.648 252.299 21.2493 252.438 20.868C253.027 19.2387 253.564 17.8693 254.05 16.76C254.535 15.616 254.968 14.784 255.35 14.264C255.384 14.16 255.436 14.0387 255.506 13.9C255.575 13.7267 255.627 13.588 255.662 13.484C255.696 13.2067 255.731 12.9987 255.766 12.86C255.835 12.6867 255.922 12.5307 256.026 12.392C256.095 12.2533 256.199 12.08 256.338 11.872C256.476 11.6293 256.632 11.3347 256.806 10.988L257.014 10.416C257.222 9.96533 257.482 9.46266 257.794 8.908C258.106 8.35333 258.331 7.95466 258.47 7.712C258.608 7.4 258.816 7.036 259.094 6.62C259.371 6.16933 259.579 5.87466 259.718 5.736L259.666 5.684C259.839 5.372 260.047 5.19866 260.29 5.164C260.567 5.09466 260.862 5.06 261.174 5.06C261.659 5.06 261.936 5.12933 262.006 5.268C262.075 5.40666 262.11 5.71866 262.11 6.204C262.11 6.724 262.092 7.10533 262.058 7.348C262.058 7.556 261.919 7.79866 261.642 8.076H261.694C261.763 8.00666 261.746 8.09333 261.642 8.336C261.538 8.544 261.451 8.7 261.382 8.804C261.312 8.97733 261.226 9.168 261.122 9.376C261.052 9.584 260.966 9.74 260.862 9.844C260.758 9.98266 260.498 10.4507 260.082 11.248C259.7 12.0107 259.25 12.912 258.73 13.952C258.244 14.992 257.776 15.9973 257.326 16.968C256.875 17.9387 256.546 18.684 256.338 19.204L256.078 19.984C256.008 20.1227 255.974 20.2267 255.974 20.296C255.87 20.5387 255.766 20.7813 255.662 21.024C255.558 21.2667 255.454 21.4747 255.35 21.648L254.466 24.664L254.206 25.756L253.738 26.9L253.426 27.888C253.356 28.096 253.304 28.2867 253.27 28.46C253.235 28.6333 253.166 28.772 253.062 28.876C253.062 28.9107 253.044 28.9627 253.01 29.032C253.01 29.0667 253.01 29.1013 253.01 29.136C252.871 29.6907 252.715 30.4707 252.542 31.476C252.368 32.4813 252.247 33.5387 252.178 34.648C252.178 34.6827 252.16 34.7173 252.126 34.752C252.126 34.7867 252.126 34.8213 252.126 34.856C252.022 35.584 251.848 36.0693 251.606 36.312C251.363 36.5547 250.999 36.6067 250.514 36.468Z" fill="#151515"/>
<path d="M264.239 36.156C262.714 36.156 261.466 35.584 260.495 34.44C259.524 33.2613 259.056 31.8053 259.091 30.072C259.16 28.824 259.403 27.4893 259.819 26.068C260.27 24.612 260.859 23.2253 261.587 21.908C262.315 20.556 263.112 19.3773 263.979 18.372C264.846 17.3667 265.747 16.656 266.683 16.24C267.03 16.0667 267.394 15.928 267.775 15.824C268.191 15.72 268.607 15.668 269.023 15.668C269.404 15.668 269.803 15.7373 270.219 15.876C270.635 15.98 270.982 16.1013 271.259 16.24C271.848 16.4827 272.299 16.7773 272.611 17.124C272.923 17.4707 273.2 18.008 273.443 18.736C273.547 19.3947 273.599 19.8627 273.599 20.14C273.599 20.4173 273.512 20.8333 273.339 21.388C272.923 22.636 272.386 23.7107 271.727 24.612C271.068 25.5133 270.184 26.276 269.075 26.9C268.798 27.0733 268.468 27.212 268.087 27.316C267.74 27.3853 267.376 27.42 266.995 27.42C266.302 27.42 265.626 27.2987 264.967 27.056C264.343 26.7787 263.84 26.38 263.459 25.86L263.095 25.444L262.939 25.86C262.592 26.796 262.315 27.6627 262.107 28.46C261.934 29.2573 261.847 29.9853 261.847 30.644C261.847 31.06 261.882 31.4587 261.951 31.84C262.055 32.2213 262.194 32.5507 262.367 32.828C262.506 33.036 262.731 33.192 263.043 33.296C263.39 33.3653 263.754 33.4 264.135 33.4C264.378 33.4 264.62 33.4 264.863 33.4C265.14 33.3653 265.4 33.296 265.643 33.192C266.232 32.984 266.7 32.7587 267.047 32.516C267.428 32.2733 267.81 32.0133 268.191 31.736L268.399 31.632H268.347C268.763 31.424 269.127 31.216 269.439 31.008C269.786 30.8 269.959 30.696 269.959 30.696C270.098 30.696 270.236 30.6093 270.375 30.436C270.652 30.2973 270.999 30.3493 271.415 30.592C271.866 30.8347 272.091 31.1467 272.091 31.528C272.056 31.7013 271.9 31.9787 271.623 32.36C271.346 32.7067 271.034 33.036 270.687 33.348C270.375 33.66 270.115 33.8333 269.907 33.868C269.872 33.9027 269.751 33.972 269.543 34.076C269.335 34.1453 269.196 34.2147 269.127 34.284H269.179C268.867 34.7 268.555 34.908 268.243 34.908H267.827C267.688 35.1507 267.238 35.428 266.475 35.74C265.712 36.0173 264.967 36.156 264.239 36.156ZM266.579 24.716C267.203 24.716 267.74 24.5427 268.191 24.196C268.676 23.8147 269.092 23.3987 269.439 22.948C270.132 22.012 270.531 21.1107 270.635 20.244C270.774 19.3427 270.67 18.7187 270.323 18.372C270.115 18.268 269.924 18.216 269.751 18.216C269.612 18.1813 269.318 18.2333 268.867 18.372C268.555 18.4413 268.122 18.7013 267.567 19.152C267.012 19.6027 266.458 20.1053 265.903 20.66C265.383 21.2147 264.984 21.6827 264.707 22.064L264.031 23.156C264.308 23.052 264.568 23 264.811 23C265.088 22.9653 265.244 22.9827 265.279 23.052C265.279 23.364 265.331 23.6587 265.435 23.936C265.574 24.1787 265.73 24.3693 265.903 24.508C266.111 24.6467 266.336 24.716 266.579 24.716Z" fill="#151515"/>
<path d="M279.329 36.208C278.67 35.9307 278.046 35.5667 277.457 35.116C276.868 34.6307 276.486 34.232 276.313 33.92C276.313 33.608 276.365 33.4 276.469 33.296C276.573 33.1573 276.868 33.1053 277.353 33.14C277.873 33.14 278.705 33.2093 279.849 33.348C280.265 33.348 280.785 33.3133 281.409 33.244C282.033 33.1747 282.605 33.0707 283.125 32.932C283.68 32.7933 283.992 32.62 284.061 32.412C284.234 32.412 284.269 32.36 284.165 32.256C284.061 32.1173 283.94 31.9787 283.801 31.84C283.662 31.84 283.506 31.788 283.333 31.684C283.16 31.5453 283.004 31.476 282.865 31.476C282.865 31.3027 282.692 31.112 282.345 30.904C282.033 30.6613 281.704 30.4707 281.357 30.332C280.594 29.708 279.936 29.1533 279.381 28.668C278.826 28.148 278.618 27.8013 278.757 27.628C278.757 27.4893 278.757 27.42 278.757 27.42C278.757 27.3853 278.757 27.368 278.757 27.368C278.514 27.368 278.237 27.0213 277.925 26.328C277.648 25.6347 277.509 25.0107 277.509 24.456C277.509 24.04 277.63 23.52 277.873 22.896C278.116 22.2373 278.445 21.5613 278.861 20.868C279.277 20.1747 279.71 19.6027 280.161 19.152C280.785 18.5627 281.565 17.9387 282.501 17.28C283.437 16.5867 284.356 15.98 285.257 15.46C286.193 14.9053 286.973 14.5413 287.597 14.368C288.221 14.1253 288.793 14.004 289.313 14.004C289.868 14.004 290.353 14.1253 290.769 14.368C291.116 14.5413 291.428 14.8013 291.705 15.148C292.017 15.46 292.277 15.7893 292.485 16.136C292.728 16.448 292.884 16.7253 292.953 16.968C292.953 17.384 292.918 17.852 292.849 18.372C292.78 18.8573 292.676 19.2907 292.537 19.672C292.433 20.0533 292.26 20.244 292.017 20.244C292.017 20.244 291.965 20.2613 291.861 20.296C291.792 20.296 291.757 20.3827 291.757 20.556C291.757 20.9027 291.497 21.3013 290.977 21.752C290.318 22.2027 289.746 22.48 289.261 22.584C288.776 22.6533 288.481 22.4627 288.377 22.012C288.273 21.8733 288.204 21.752 288.169 21.648C288.134 21.544 288.048 21.492 287.909 21.492C287.909 21.492 287.857 21.44 287.753 21.336C287.649 21.232 287.597 21.0587 287.597 20.816C287.597 20.6773 287.649 20.556 287.753 20.452C287.857 20.3133 287.909 20.244 287.909 20.244C288.082 20.244 288.308 20.0533 288.585 19.672C288.862 19.256 289.105 18.8227 289.313 18.372C289.556 17.8867 289.677 17.5573 289.677 17.384C289.677 17.176 289.642 17.0547 289.573 17.02C289.538 16.9853 289.382 16.968 289.105 16.968C288.62 17.176 288.03 17.4533 287.337 17.8C286.644 18.1467 285.985 18.4933 285.361 18.84C284.772 19.152 284.338 19.4467 284.061 19.724C283.922 19.9667 283.836 20.1227 283.801 20.192C283.766 20.2267 283.68 20.244 283.541 20.244C283.541 20.1053 283.42 20.1747 283.177 20.452C282.969 20.6947 282.692 21.0413 282.345 21.492C282.033 21.9427 281.721 22.3933 281.409 22.844C281.132 23.26 280.924 23.572 280.785 23.78C280.716 23.8493 280.629 24.0573 280.525 24.404C280.456 24.716 280.421 25.0107 280.421 25.288C280.282 25.704 280.3 25.9987 280.473 26.172C280.646 26.3107 281.028 26.6227 281.617 27.108C282.83 28.0093 283.784 28.7547 284.477 29.344C285.17 29.9333 285.69 30.4187 286.037 30.8C286.384 31.1813 286.592 31.528 286.661 31.84C287.285 32.88 287.476 33.6773 287.233 34.232C286.99 34.7867 286.401 35.272 285.465 35.688C285.118 35.8613 284.546 36 283.749 36.104C282.952 36.208 282.137 36.26 281.305 36.26C280.473 36.2947 279.814 36.2773 279.329 36.208Z" fill="#151515"/>
</svg>
